<svg width="14" height="14" viewBox="0 0 14 14" fill="none" xmlns="http://www.w3.org/2000/svg">
<path d="M1.66667 13.6666C1.3 13.6666 0.986114 13.536 0.725003 13.2749C0.463891 13.0138 0.333336 12.6999 0.333336 12.3333V6.53325C0.333336 6.26658 0.405558 6.02214 0.550003 5.79992C0.694447 5.5777 0.894447 5.41103 1.15 5.29992L4.06667 4.06659C4.28889 3.9777 4.5 3.99436 4.7 4.11659C4.9 4.23881 5 4.42214 5 4.66658V4.99992L7.41667 4.03325C7.63889 3.94436 7.84722 3.96659 8.04167 4.09992C8.23611 4.23325 8.33334 4.41658 8.33334 4.64992V5.66658H13.6667V12.3333C13.6667 12.6999 13.5361 13.0138 13.275 13.2749C13.0139 13.536 12.7 13.6666 12.3333 13.6666H1.66667ZM1.66667 12.3333H12.3333V6.99992H7V5.63325L3.66667 6.96658V5.66658L1.66667 6.54992V12.3333ZM6.33334 10.9999H7.66667V8.33325H6.33334V10.9999ZM3.66667 10.9999H5V8.33325H3.66667V10.9999ZM9 10.9999H10.3333V8.33325H9V10.9999ZM13.6667 5.66658H10.3333L10.9333 0.916585C10.9556 0.749919 11.0278 0.61103 11.15 0.499919C11.2722 0.388808 11.4167 0.333252 11.5833 0.333252H12.4167C12.5833 0.333252 12.7278 0.388808 12.85 0.499919C12.9722 0.61103 13.0444 0.749919 13.0667 0.916585L13.6667 5.66658Z" fill="#98908A"/>
</svg>
