<svg width="342" height="240" viewBox="0 0 342 240" fill="none" xmlns="http://www.w3.org/2000/svg">
<g clip-path="url(#clip0_1_1564)">
<rect width="342" height="238.743" transform="translate(0 0.917725)" fill="#F0ECE4"/>
<g clip-path="url(#clip1_1_1564)">
<path d="M307.934 20.3809C310.25 21.9475 311.172 24.5335 311.172 27.1944V27.6516L310.078 27.022V26.5048C310.078 24.3611 309.381 22.3897 307.485 21.2953C305.588 20.201 304.899 21.3703 304.899 23.4841C304.899 28.3412 311.202 31.8642 311.202 37.3809C311.202 40.0419 310.258 41.5485 307.942 40.4391V42.0432L306.967 41.481V39.877C304.629 38.3254 303.677 35.7244 303.677 33.0335V31.9166L304.771 32.5463V33.7156C304.771 35.8893 305.491 37.8456 307.41 38.955C309.328 40.0643 310.048 38.9325 310.048 36.7663C310.048 31.9916 303.744 28.4462 303.744 22.8994C303.744 20.0961 304.719 18.7768 306.96 19.8112V18.0947L307.934 18.6569V20.3734V20.3809Z" fill="#E5DDCE"/>
<path d="M302.607 178.337C302.607 176.471 303.447 175.916 305.006 176.816C306.565 177.715 307.405 179.237 307.405 181.111V187.085C307.405 188.951 306.565 189.506 305.006 188.606C303.447 187.707 302.607 186.185 302.607 184.311V178.337ZM304.189 185.353C304.189 186.155 304.481 186.665 305.006 186.965C305.501 187.25 305.823 187.1 305.823 186.29V180.061C305.823 179.259 305.508 178.735 305.006 178.45C304.489 178.15 304.189 178.315 304.189 179.125V185.353ZM311.25 180.549L312.719 181.396L306.475 195.96L305.006 195.113L311.25 180.549ZM310.455 189.513C310.455 187.647 311.295 187.092 312.854 187.992C314.413 188.891 315.253 190.413 315.253 192.287V198.261C315.253 200.127 314.413 200.682 312.854 199.782C311.295 198.883 310.455 197.361 310.455 195.487V189.513ZM312.037 196.529C312.037 197.331 312.329 197.841 312.854 198.141C313.349 198.426 313.671 198.276 313.671 197.466V191.237C313.671 190.435 313.356 189.911 312.854 189.626C312.337 189.326 312.037 189.491 312.037 190.3V196.529Z" fill="#E5DDCE"/>
<path d="M75.8008 149.123C75.8008 147.144 76.6853 145.525 78.3419 144.573C79.9984 143.621 80.8829 144.206 80.8829 146.185V152.518C80.8829 154.497 79.9984 156.116 78.3419 157.068C76.6853 158.02 75.8008 157.436 75.8008 155.457V149.123ZM77.4799 154.625C77.4799 155.479 77.7947 155.659 78.3419 155.337C78.8665 155.03 79.2038 154.482 79.2038 153.628V147.017C79.2038 146.162 78.8665 145.997 78.3419 146.305C77.7872 146.619 77.4799 147.159 77.4799 148.014V154.625ZM84.968 140.885L86.5271 139.986L79.9009 163.08L78.3419 163.979L84.968 140.885ZM84.1285 151.364C84.1285 149.385 85.0129 147.766 86.6695 146.814C88.326 145.855 89.2105 146.447 89.2105 148.426V154.76C89.2105 156.739 88.326 158.358 86.6695 159.31C85.0129 160.269 84.1285 159.677 84.1285 157.698V151.364ZM85.8075 156.866C85.8075 157.72 86.1223 157.9 86.6695 157.578C87.1942 157.271 87.5315 156.724 87.5315 155.869V149.258C87.5315 148.403 87.1942 148.239 86.6695 148.546C86.1148 148.861 85.8075 149.4 85.8075 150.255V156.866Z" fill="#E5DDCE"/>
<path d="M63.7486 16.2495L59.2063 15.3726V18.1309L54.9113 20.6495L47.5506 37.1998L42.5735 39.8007L39.5003 47.2364L33.3615 50.7818L33.3764 52.8656L40.9245 48.5181L43.9977 41.075L48.9748 38.4815L56.7477 21.5939L59.2063 20.1697V22.3585L63.7486 16.2495Z" fill="#E5DDCE"/>
<path d="M27.7398 63.1121V14.6455L24.4942 16.5194V64.986L24.4717 65.001V68.3515L68.7183 42.874V39.5234L27.7398 63.1121Z" fill="#E5DDCE"/>
<path d="M281.741 97.9938C287.413 94.6782 287.356 84.0289 281.615 74.208C275.874 64.3871 266.622 59.1135 260.95 62.4291C255.279 65.7447 255.335 76.3939 261.076 86.2148C266.817 96.0358 276.069 101.309 281.741 97.9938Z" fill="#E5DDCE"/>
<path d="M277.902 97.305C276.178 97.305 274.199 96.6903 272.183 95.521C264.59 91.1361 258.406 80.4848 258.406 71.7675C258.406 66.3406 260.79 63.1025 264.785 63.1025C266.509 63.1025 268.488 63.7172 270.504 64.8865C278.097 69.2714 284.281 79.9302 284.281 88.6401C284.281 94.0669 281.897 97.305 277.902 97.305Z" fill="#F5F1EA"/>
<path d="M277.026 95.0039C275.534 95.0039 273.818 94.4717 272.071 93.4598C265.498 89.667 260.146 80.4399 260.146 72.8993C260.146 68.2071 262.207 65.3962 265.67 65.3962C267.162 65.3962 268.878 65.9284 270.625 66.9403C277.198 70.7331 282.55 79.9602 282.55 87.5008C282.55 92.2005 280.489 95.0039 277.026 95.0039Z" fill="#E5DDCE"/>
<path d="M275.871 92.0056C274.679 92.0056 273.315 91.5784 271.921 90.7764C266.681 87.7481 262.416 80.3949 262.416 74.3835C262.416 70.6432 264.065 68.402 266.816 68.402C268.008 68.402 269.372 68.8292 270.766 69.6313C276.006 72.6595 280.271 80.0127 280.271 86.0241C280.271 89.7719 278.622 92.0056 275.871 92.0056Z" fill="#F5F1EA"/>
<path d="M274.897 89.4646C273.967 89.4646 272.895 89.1273 271.801 88.4977C267.686 86.1216 264.343 80.3575 264.343 75.6352C264.343 72.697 265.632 70.943 267.798 70.943C268.728 70.943 269.8 71.2728 270.894 71.9099C275.009 74.286 278.352 80.0502 278.352 84.7724C278.352 87.7107 277.063 89.4646 274.897 89.4646Z" fill="#E5DDCE"/>
<path d="M273.99 87.1035C273.293 87.1035 272.498 86.8561 271.681 86.3839C268.615 84.6149 266.119 80.3125 266.119 76.797C266.119 74.6083 267.079 73.3041 268.69 73.3041C269.387 73.3041 270.182 73.5514 270.999 74.0237C274.065 75.7926 276.561 80.0951 276.561 83.6105C276.561 85.7993 275.601 87.1035 273.99 87.1035Z" fill="#F5F1EA"/>
<path d="M272.798 83.9929C272.416 83.9929 271.981 83.858 271.531 83.5957C269.852 82.6287 268.481 80.2676 268.481 78.3412C268.481 77.1419 269.005 76.4224 269.89 76.4224C270.272 76.4224 270.707 76.5573 271.157 76.8196C272.836 77.7866 274.207 80.1477 274.207 82.074C274.207 83.2733 273.683 83.9929 272.798 83.9929Z" fill="#E5DDCE"/>
<path d="M24.889 129.835C21.486 131.799 18.7276 136.559 18.7276 140.456C18.7276 140.606 18.7351 140.779 18.7501 140.943C18.7501 141.018 18.7651 141.093 18.7726 141.168C18.8175 141.506 18.885 141.813 18.9899 142.098C19.0274 142.195 19.0649 142.285 19.1099 142.368C19.1548 142.458 19.8894 143.604 20.1368 144.197C20.7664 145.696 21.381 145.486 21.3286 148.507H21.3361C21.3361 148.701 21.3361 148.904 21.3286 149.106C21.3286 149.129 21.3286 149.159 21.3286 149.181C21.3286 149.219 21.3361 149.241 21.3361 149.279C21.3361 149.391 21.3361 149.503 21.3361 149.608C21.396 150.388 21.4785 151.205 21.6959 151.865C21.8907 152.472 22.2505 152.794 22.7977 152.891C22.9251 152.914 23.0676 152.899 23.2175 152.876C23.2699 152.899 23.3224 152.921 23.3674 152.944C23.4723 152.989 23.5698 153.056 23.6597 153.139C23.6747 153.154 23.6897 153.161 23.7047 153.169C23.8396 153.244 24.0345 153.251 24.2743 153.191C24.4542 153.146 24.6566 153.064 24.874 152.944C25.0914 152.824 25.2937 152.674 25.4736 152.517C25.721 152.299 25.9234 152.059 26.0583 151.827C26.0808 151.79 26.0958 151.76 26.1108 151.73C26.2082 151.535 26.2982 151.34 26.4106 151.145C26.4331 151.108 26.4556 151.07 26.4706 151.033C27.0702 150.508 27.5499 149.781 27.8722 148.994C28.1271 148.364 28.352 147.622 28.4119 147.022C28.4719 146.4 28.4194 145.831 28.4194 145.238C28.4194 145.186 28.4344 145.134 28.4344 145.081C28.4344 145.021 28.4269 144.969 28.4194 144.909C28.4194 144.744 28.4194 144.579 28.4194 144.421H28.4344C28.3819 141.183 29.1165 140.561 29.7986 138.11C29.986 137.436 30.5931 135.884 30.6306 135.764C30.6456 135.712 30.6606 135.659 30.6831 135.607C30.8105 135.172 30.908 134.737 30.9679 134.31C30.9904 134.152 31.0054 134.003 31.0204 133.845C31.0354 133.665 31.0429 133.485 31.0429 133.343C31.0429 129.438 28.2845 127.871 24.8815 129.835H24.889Z" fill="#E5DDCE"/>
<path d="M23.8024 122.909C23.8474 122.422 23.9073 121.927 23.9523 121.44C23.9748 121.193 23.9673 120.99 23.9298 120.78C23.9073 120.646 23.8099 120.368 23.8698 120.196C23.6974 120.706 23.5475 121.223 23.4576 121.725C23.3676 122.212 23.3527 122.699 23.3077 123.172C23.2177 124.191 23.1653 125.195 23.1503 126.17L23.6375 125.892C23.6525 124.918 23.6974 123.921 23.7949 122.909H23.8024Z" fill="#E5DDCE"/>
<path d="M28.3745 122.924L29.214 120.608C29.3489 120.233 29.4839 119.851 29.6263 119.476C29.7987 119.004 29.9111 118.524 30.061 118.045C30.076 118 30.091 117.947 30.091 117.902C29.8212 118.344 29.4464 118.847 29.2515 119.311C29.1166 119.634 29.0116 119.971 28.8992 120.293C28.4645 121.5 28.0297 122.699 27.595 123.906H28.0297C28.1496 123.591 28.2696 123.261 28.382 122.932L28.3745 122.924Z" fill="#E5DDCE"/>
<path d="M35.0006 119.911C33.8163 121.065 32.9468 122.722 32.0548 124.191L32.3846 124.408C32.7219 123.846 33.0667 123.291 33.404 122.729C33.6439 122.332 33.9137 121.935 34.1386 121.522C34.4309 120.983 34.6783 120.443 35.0006 119.911Z" fill="#E5DDCE"/>
<path d="M34.064 129.175L34.4313 129.325C34.4313 129.325 35.3607 127.691 35.4582 127.549C35.833 126.957 36.2227 126.387 36.635 125.84C37.0473 125.293 37.482 124.761 37.9242 124.258C38.374 123.756 38.8387 123.291 39.2585 122.737C39.3109 122.669 39.6707 122.16 39.4758 122.294C39.4384 122.317 39.4009 122.347 39.3709 122.369C38.7937 122.782 38.3065 123.216 37.7818 123.801C37.3021 124.333 36.8449 124.888 36.4026 125.473C35.9604 126.057 35.5406 126.664 35.1509 127.287C35.0534 127.436 34.034 129.16 34.064 129.175Z" fill="#E5DDCE"/>
<path d="M38.1566 129.453C37.7069 129.85 37.2647 130.277 36.8374 130.727C36.4027 131.192 35.9754 131.687 35.5781 132.211C35.4807 132.339 34.4463 133.748 34.4763 133.77L34.7911 134.018C36.2078 131.822 37.9093 130.232 39.6557 128.651C39.1535 128.816 38.6663 129.003 38.1641 129.453H38.1566Z" fill="#E5DDCE"/>
<path d="M37.542 136.559C36.4476 137.188 35.3533 137.825 34.2589 138.455V139.017C35.0834 138.537 35.9079 138.065 36.7325 137.586C37.467 137.158 38.2016 136.739 38.9437 136.311C39.236 136.139 39.5358 135.974 39.8281 135.802C40.053 135.674 40.2779 135.509 40.4953 135.344C40.6751 135.217 40.8475 135.082 41.0349 134.97C40.7351 134.925 40.3079 134.895 39.9481 135.134C39.7082 135.299 39.4684 135.442 39.2285 135.584C38.6663 135.907 38.1117 136.229 37.5495 136.551L37.542 136.559Z" fill="#E5DDCE"/>
<path d="M41.0415 141.123C40.8541 141.048 40.6368 141.161 40.3894 141.251C40.0821 141.363 39.7748 141.483 39.4674 141.603C38.8528 141.843 38.2382 142.098 37.616 142.368C36.3793 142.907 35.135 143.5 33.8907 144.144L33.8682 144.721C34.0031 144.654 34.1381 144.579 34.2805 144.511C35.5248 143.874 36.7615 143.297 37.9983 142.772C38.6129 142.51 39.2276 142.263 39.8422 142.03C40.1495 141.91 40.4494 141.806 40.7567 141.693C40.8391 141.663 40.9216 141.618 41.0115 141.581C41.049 141.566 41.079 141.543 41.1165 141.528C41.1839 141.498 41.4838 141.288 41.5212 141.303C41.3563 141.251 41.1989 141.191 41.0415 141.131V141.123Z" fill="#E5DDCE"/>
<path d="M19.5668 129.423C19.7466 129.873 19.919 130.315 20.0989 130.764L20.5562 130.307C20.4962 130.157 20.4362 130 20.3763 129.85C20.0839 129.108 19.7841 128.358 19.4918 127.616C19.3269 127.204 19.1845 126.769 19.0046 126.372C18.7722 125.84 18.4574 125.375 18.1876 124.888C18.3225 125.555 18.4274 126.26 18.5848 126.904C18.6973 127.361 18.9071 127.759 19.072 128.171C19.2369 128.591 19.4018 129.003 19.5668 129.423Z" fill="#E5DDCE"/>
<path d="M14.1706 133.246C13.7208 133.201 13.2411 133.223 12.7764 133.216C13.0912 133.485 13.4285 133.755 13.8407 133.845C14.2755 133.943 14.6952 134.085 15.1225 134.22C15.9695 134.49 16.8015 134.79 17.6185 135.119L17.9333 134.512C17.1163 134.175 16.2768 133.875 15.4223 133.605C15.0176 133.478 14.6128 133.291 14.1706 133.246Z" fill="#E5DDCE"/>
<path d="M14.4479 141.641C13.3461 142.023 12.2068 142.593 11.0824 143.327C10.4453 143.739 9.68074 144.294 9.22351 145.126C9.44088 145.074 9.69573 144.834 9.91311 144.676C10.8126 144.002 11.7645 143.425 12.6715 142.96C13.7958 142.383 14.9202 141.993 15.9845 141.806C16.1045 141.783 17.4012 141.626 17.3862 141.671L17.6036 141.041C17.6186 140.989 16.2094 141.168 16.0745 141.191C15.5423 141.288 14.9951 141.438 14.4405 141.626L14.4479 141.641Z" fill="#E5DDCE"/>
<path d="M14.1706 149.354C14.2755 149.324 15.4298 149.061 15.4223 149.084L15.5872 148.462C15.5872 148.402 14.8602 148.604 14.7777 148.619C14.4929 148.686 14.208 148.761 13.9232 148.844C13.346 149.016 12.7614 149.226 12.1767 149.474C11.5921 149.721 10.9999 150.013 10.4078 150.336C9.6657 150.74 8.90115 151.272 8.16658 151.835C7.75432 152.149 7.49947 152.427 7.16217 152.907C7.74683 152.494 8.33148 152.187 8.91614 151.797C9.5008 151.407 10.093 151.055 10.6851 150.748C11.8619 150.126 13.0387 149.653 14.1781 149.346L14.1706 149.354Z" fill="#E5DDCE"/>
<path d="M13.3757 155.882C12.8885 156.227 12.4013 156.579 11.9141 156.924C11.5168 157.209 11.0446 157.471 10.6848 157.914C10.4524 158.206 10.22 158.498 9.99518 158.806C10.1451 158.641 10.3775 158.603 10.5349 158.498C10.6173 158.446 10.6998 158.386 10.7822 158.333C11.2694 157.996 11.7417 157.614 12.2364 157.269C12.9784 156.744 13.7205 156.212 14.4626 155.687C15.1297 155.215 15.7968 154.735 16.4639 154.263L16.4039 153.739C15.392 154.458 14.3876 155.178 13.3757 155.897V155.882Z" fill="#E5DDCE"/>
<path d="M162.961 56.2697L160.038 57.9563V30.0201L162.961 28.3336V56.2697Z" fill="#E5DDCE"/>
<path d="M167.181 53.8336L164.258 55.5202V34.1052L167.181 32.4187V53.8336Z" fill="#E5DDCE"/>
<path d="M171.507 51.3376L168.591 53.0241V38.5576L171.507 36.8711V51.3376Z" fill="#E5DDCE"/>
<path d="M175.292 49.1489L172.376 50.8354V18.1246L175.292 16.4381V49.1489Z" fill="#E5DDCE"/>
<path d="M179.084 46.9601L176.161 48.6466V20.9054L179.084 19.2189V46.9601Z" fill="#E5DDCE"/>
<path d="M183.057 44.6666L180.134 46.3531V23.4465L183.057 21.76V44.6666Z" fill="#E5DDCE"/>
</g>
<path d="M314.932 150.914V147.001L312.983 145.862C312.871 144.347 312.601 142.803 312.211 141.274L313.943 140.944L312.481 136.702L310.839 137.009H310.78C310.24 135.735 309.625 134.498 308.943 133.329C308.816 133.104 308.688 132.894 308.553 132.677L309.558 130.945L307.017 127.52L306.035 129.214C305.068 128.09 304.033 127.1 302.954 126.268V123.592L300.016 121.898V124.514C298.989 124.072 297.992 123.832 297.063 123.78L296.748 122.858L296.081 120.886L293.517 121.321L293.742 121.988L294.477 124.162C294.094 124.312 293.72 124.492 293.375 124.731C292.94 125.009 292.528 125.361 292.16 125.758L290.436 123.397L288.937 125.901L290.624 128.209C290.189 129.236 289.882 130.436 289.717 131.777L287.716 130.593L287.686 134.491L289.649 135.645C289.762 137.159 290.017 138.696 290.406 140.232L288.667 140.532L290.114 144.782L291.823 144.475C292.453 145.997 293.195 147.466 294.034 148.837L293.022 150.554L295.556 154.002L296.553 152.323C297.52 153.455 298.547 154.459 299.626 155.291V157.952L302.549 159.676L302.564 157.068C303.651 157.54 304.693 157.787 305.667 157.84L306.657 160.733L309.213 160.268L308.238 157.435C308.763 157.225 309.25 156.94 309.708 156.588C310.007 156.355 310.285 156.101 310.547 155.808L312.279 158.154L312.706 157.427L313.755 155.636L313.088 154.729L312.069 153.342C312.496 152.3 312.796 151.094 312.953 149.744L314.955 150.914H314.932ZM298.989 130.818C299.716 130.885 300.496 131.148 301.32 131.62C305.128 133.816 308.223 139.73 308.223 144.805C308.223 146.386 307.924 147.698 307.391 148.695C306.222 150.891 303.944 151.528 301.32 150.022C297.52 147.825 294.424 141.919 294.424 136.844C294.424 132.864 296.335 130.563 298.996 130.833L298.989 130.818Z" fill="#E5DDCE"/>
<path d="M326.986 161.707V159.811L326.041 159.256C325.989 158.522 325.854 157.772 325.666 157.03L326.506 156.873L325.801 154.819L325.007 154.969H324.977C324.714 154.354 324.422 153.755 324.085 153.185C324.025 153.08 323.957 152.975 323.897 152.87L324.385 152.031L323.155 150.367L322.683 151.191C322.218 150.644 321.716 150.164 321.191 149.767V148.47L319.767 147.653V148.92C319.265 148.71 318.785 148.59 318.336 148.56L318.186 148.11L317.863 147.158L316.619 147.368L316.732 147.691L317.084 148.74C316.896 148.815 316.717 148.905 316.552 149.017C316.342 149.152 316.139 149.317 315.96 149.52L315.127 148.373L314.4 149.587L315.217 150.704C315.008 151.199 314.858 151.783 314.783 152.428L313.816 151.858L313.801 153.747L314.753 154.309C314.805 155.044 314.933 155.786 315.12 156.535L314.273 156.678L314.97 158.739L315.795 158.589C316.094 159.324 316.462 160.036 316.866 160.703L316.372 161.535L317.601 163.207L318.081 162.39C318.545 162.937 319.048 163.424 319.572 163.829V165.118L320.989 165.95V164.691C321.521 164.923 322.023 165.043 322.503 165.065L322.983 166.467L324.22 166.242L323.747 164.871C324.002 164.773 324.242 164.631 324.46 164.458C324.602 164.346 324.737 164.218 324.864 164.076L325.704 165.215L325.914 164.863L326.423 163.994L326.101 163.551L325.606 162.877C325.816 162.375 325.959 161.79 326.034 161.138L327.001 161.7L326.986 161.707ZM319.265 151.971C319.617 152.001 320 152.128 320.389 152.36C322.233 153.425 323.732 156.288 323.732 158.747C323.732 159.511 323.59 160.148 323.328 160.628C322.766 161.692 321.656 162 320.389 161.273C318.546 160.208 317.046 157.345 317.046 154.886C317.046 152.96 317.968 151.843 319.258 151.971H319.265Z" fill="#E5DDCE"/>
<path d="M326.558 139.73V137.422L325.403 136.747C325.336 135.847 325.178 134.94 324.946 134.034L325.973 133.839L325.111 131.335L324.144 131.515H324.107C323.792 130.765 323.424 130.031 323.02 129.334C322.945 129.199 322.87 129.079 322.787 128.952L323.379 127.925L321.88 125.901L321.303 126.905C320.734 126.238 320.119 125.653 319.482 125.166V123.585L317.75 122.58V124.124C317.143 123.862 316.551 123.72 316.004 123.69L315.816 123.142L315.419 121.981L313.905 122.235L314.04 122.633L314.475 123.914C314.25 124.004 314.025 124.109 313.823 124.252C313.568 124.417 313.32 124.619 313.103 124.859L312.084 123.465L311.199 124.949L312.196 126.313C311.941 126.92 311.754 127.625 311.664 128.419L310.48 127.722L310.457 130.023L311.619 130.705C311.686 131.605 311.836 132.512 312.069 133.419L311.042 133.599L311.896 136.11L312.908 135.93C313.275 136.829 313.718 137.699 314.212 138.508L313.613 139.52L315.112 141.559L315.696 140.57C316.266 141.237 316.873 141.829 317.51 142.324V143.898L319.242 144.917V143.381C319.894 143.658 320.509 143.808 321.086 143.838L321.67 145.547L323.177 145.269L322.6 143.598C322.907 143.478 323.2 143.306 323.469 143.096C323.642 142.961 323.807 142.803 323.964 142.631L324.983 144.018L325.238 143.583L325.86 142.526L325.463 141.986L324.856 141.169C325.111 140.555 325.291 139.843 325.381 139.048L326.565 139.738L326.558 139.73ZM317.136 127.85C317.563 127.887 318.028 128.045 318.515 128.322C320.763 129.619 322.592 133.112 322.592 136.117C322.592 137.054 322.413 137.826 322.105 138.418C321.416 139.715 320.066 140.097 318.515 139.198C316.266 137.901 314.437 134.408 314.437 131.41C314.437 129.056 315.562 127.7 317.136 127.857V127.85Z" fill="#E5DDCE"/>
<path d="M351.55 77.3157L29.2462 261.745" stroke="#999999" stroke-opacity="0.7" stroke-width="0.596859" stroke-dasharray="7.16 7.16"/>
<path d="M-52.8219 42.6979L351.55 271.892" stroke="#999999" stroke-opacity="0.7" stroke-width="0.596859" stroke-dasharray="7.16 7.16"/>
<g clip-path="url(#clip2_1_1564)">
<path d="M168.173 188.497L168.16 192.281C168.16 193.239 167.528 194.197 166.265 194.928C165.107 195.6 163.631 195.966 162.121 196.026L162.135 192.241C163.638 192.181 165.121 191.816 166.278 191.144C167.535 190.412 168.167 189.455 168.173 188.497Z" fill="#200D00"/>
<path d="M106.882 192.448L106.895 188.663C106.895 189.634 107.534 190.605 108.817 191.344C109.935 191.989 111.345 192.354 112.801 192.441L112.788 196.225C111.331 196.139 109.921 195.773 108.804 195.128C107.521 194.383 106.875 193.418 106.882 192.448Z" fill="#200D00"/>
<path d="M158.084 198.606L158.098 194.822C158.098 194.163 158.53 193.505 159.394 193C160.159 192.554 161.13 192.301 162.134 192.235L162.121 196.019C161.11 196.085 160.146 196.338 159.381 196.784C158.517 197.283 158.084 197.948 158.084 198.606Z" fill="#200D00"/>
<path d="M117.044 195.055L117.03 198.839C117.03 198.167 116.591 197.495 115.707 196.99C114.889 196.518 113.845 196.265 112.781 196.232L112.794 192.448C113.858 192.481 114.902 192.733 115.72 193.206C116.605 193.718 117.044 194.383 117.044 195.055Z" fill="#200D00"/>
<path d="M169.942 202.749L169.929 206.533L159.807 212.419L159.82 208.635L169.942 202.749Z" fill="#200D00"/>
<path d="M158.503 214.241L158.516 210.457C158.516 209.799 158.949 209.134 159.82 208.628L159.807 212.412C158.935 212.918 158.503 213.576 158.503 214.241Z" fill="#7181E2"/>
<path d="M155.663 217.088L155.65 220.872C155.53 220.294 155.091 219.728 154.327 219.283C152.577 218.272 149.738 218.272 147.989 219.283L148.002 215.498C149.751 214.481 152.591 214.488 154.34 215.498C155.111 215.944 155.544 216.509 155.663 217.088Z" fill="#200D00"/>
<path d="M168.659 216.849L168.646 220.633C168.646 221.59 168.014 222.548 166.75 223.28C164.217 224.749 160.107 224.749 157.553 223.28C156.389 222.608 155.757 221.75 155.651 220.879L155.664 217.095C155.77 217.966 156.409 218.824 157.566 219.495C160.12 220.972 164.23 220.972 166.764 219.495C168.021 218.764 168.652 217.806 168.659 216.849Z" fill="#200D00"/>
<path d="M147.996 215.499L147.99 219.283L137.867 225.168L137.881 221.384L147.996 215.499Z" fill="#200D00"/>
<path d="M166.244 185.81C168.791 187.28 168.811 189.668 166.277 191.144C165.12 191.816 163.644 192.182 162.134 192.241C161.123 192.308 160.159 192.561 159.394 193.006C157.658 194.017 157.658 195.66 159.414 196.677L169.942 202.756L159.82 208.642C158.071 209.659 158.084 211.302 159.833 212.313C160.651 212.785 161.695 213.044 162.759 213.071C164.216 213.157 165.626 213.523 166.743 214.168C169.297 215.645 169.303 218.026 166.776 219.502C164.249 220.978 160.132 220.972 157.578 219.502C156.415 218.83 155.783 217.972 155.676 217.101C155.557 216.523 155.118 215.957 154.353 215.512C152.604 214.501 149.764 214.501 148.015 215.512L137.899 221.391L105.624 202.756L115.74 196.877C117.489 195.859 117.469 194.21 115.72 193.199C114.902 192.727 113.858 192.474 112.794 192.441C111.337 192.354 109.927 191.989 108.81 191.344C106.256 189.867 106.249 187.493 108.777 186.016C111.304 184.54 115.421 184.54 117.974 186.016C119.138 186.688 119.77 187.546 119.883 188.424C119.996 189.003 120.435 189.568 121.207 190.013C122.956 191.024 125.802 191.031 127.551 190.013L137.673 184.128L147.51 189.807C149.272 190.825 152.112 190.818 153.847 189.807C154.659 189.335 155.098 188.73 155.158 188.118C155.304 187.273 155.929 186.455 157.033 185.81C159.574 184.334 163.69 184.341 166.238 185.81H166.244Z" fill="#E5D6BB"/>
<path d="M137.88 221.384L137.867 225.168L105.612 206.54L105.625 202.756L137.88 221.384Z" fill="#200D00"/>
<path d="M248.898 149.817L248.885 153.602C248.885 154.559 248.253 155.517 246.989 156.248C245.832 156.92 244.356 157.286 242.846 157.346L242.859 153.562C244.362 153.502 245.845 153.136 247.002 152.464C248.266 151.733 248.898 150.775 248.898 149.817Z" fill="#200D00"/>
<path d="M187.607 153.761L187.62 149.977C187.62 150.948 188.258 151.919 189.542 152.664C190.659 153.309 192.069 153.675 193.526 153.761L193.512 157.545C192.056 157.459 190.646 157.093 189.529 156.448C188.245 155.703 187.6 154.732 187.607 153.761Z" fill="#200D00"/>
<path d="M238.81 159.933L238.823 156.149C238.823 155.49 239.255 154.832 240.12 154.327C240.885 153.881 241.856 153.635 242.86 153.562L242.847 157.346C241.842 157.412 240.871 157.665 240.107 158.111C239.242 158.61 238.81 159.268 238.81 159.933Z" fill="#200D00"/>
<path d="M197.768 156.368L197.755 160.152C197.755 159.481 197.316 158.816 196.438 158.304C195.62 157.831 194.576 157.572 193.512 157.545L193.525 153.761C194.583 153.794 195.633 154.047 196.451 154.519C197.329 155.025 197.775 155.697 197.768 156.368Z" fill="#200D00"/>
<path d="M216.656 168.366L216.643 172.15C216.643 171.179 216.005 170.208 214.721 169.463C212.174 167.993 208.057 167.987 205.517 169.463C204.413 170.108 203.787 170.926 203.654 171.764L203.668 167.98C203.801 167.142 204.419 166.317 205.53 165.679C208.07 164.203 212.187 164.209 214.734 165.679C216.018 166.417 216.663 167.395 216.656 168.366Z" fill="#200D00"/>
<path d="M250.667 164.07L250.654 167.854L240.538 173.733L240.545 169.955L250.667 164.07Z" fill="#200D00"/>
<path d="M196.385 169.869L196.372 173.653L186.336 167.854L186.349 164.07L196.385 169.869Z" fill="#200D00"/>
<path d="M203.667 167.98L203.654 171.764C203.58 172.376 203.148 172.981 202.337 173.454C200.714 174.398 198.14 174.465 196.371 173.653L196.385 169.869C198.154 170.68 200.734 170.614 202.35 169.669C203.161 169.197 203.594 168.592 203.667 167.98Z" fill="#200D00"/>
<path d="M239.235 175.562L239.248 171.778C239.248 171.119 239.68 170.461 240.551 169.955L240.538 173.74C239.674 174.245 239.241 174.903 239.235 175.562Z" fill="#200D00"/>
<path d="M206.567 178.475L206.58 174.691C206.58 175.269 206.906 175.848 207.557 176.32L207.544 180.104C206.892 179.625 206.567 179.053 206.567 178.475Z" fill="#200D00"/>
<path d="M236.394 178.408L236.381 182.192C236.268 181.614 235.829 181.049 235.058 180.603C233.309 179.592 230.462 179.585 228.713 180.603L228.726 176.819C230.475 175.801 233.322 175.808 235.071 176.819C235.842 177.264 236.275 177.83 236.394 178.408Z" fill="#200D00"/>
<path d="M249.397 178.169L249.384 181.953C249.384 182.911 248.752 183.868 247.488 184.6C244.961 186.07 240.844 186.07 238.291 184.6C237.127 183.928 236.495 183.07 236.382 182.192L236.395 178.408C236.508 179.286 237.147 180.144 238.304 180.816C240.858 182.292 244.974 182.285 247.502 180.816C248.759 180.084 249.39 179.126 249.397 178.169Z" fill="#200D00"/>
<path d="M228.727 176.819L228.72 180.603L218.598 186.482L218.611 182.698L228.727 176.819Z" fill="#200D00"/>
<path d="M218.612 182.698L218.598 186.482L207.545 180.104L207.558 176.32L218.612 182.698Z" fill="#200D00"/>
<path d="M246.976 147.137C249.523 148.607 249.536 150.988 247.002 152.464C245.845 153.136 244.369 153.502 242.859 153.562C241.855 153.628 240.884 153.881 240.119 154.327C238.383 155.337 238.383 156.98 240.146 157.998L250.667 164.07L240.551 169.949C238.802 170.966 238.822 172.616 240.571 173.626C241.389 174.099 242.433 174.358 243.497 174.385C244.954 174.471 246.364 174.837 247.481 175.482C250.035 176.958 250.042 179.339 247.514 180.816C244.987 182.292 240.87 182.286 238.317 180.816C237.153 180.144 236.521 179.286 236.408 178.408C236.295 177.83 235.856 177.264 235.084 176.819C233.335 175.808 230.489 175.801 228.74 176.819L218.624 182.698L207.571 176.313C206.168 175.289 206.274 173.799 207.897 172.855C208.662 172.409 209.633 172.163 210.637 172.104C212.14 172.03 213.63 171.671 214.78 171C217.321 169.523 217.301 167.142 214.747 165.666C212.193 164.189 208.083 164.189 205.543 165.666C204.439 166.311 203.814 167.129 203.68 167.967C203.607 168.579 203.175 169.184 202.364 169.656C200.741 170.6 198.167 170.667 196.398 169.856L186.362 164.063L196.478 158.184C198.227 157.166 198.214 155.524 196.465 154.513C195.647 154.041 194.602 153.781 193.538 153.755C192.082 153.668 190.672 153.302 189.555 152.657C187.001 151.181 186.994 148.8 189.521 147.33C192.049 145.86 196.172 145.854 198.726 147.33C199.89 148.002 200.521 148.86 200.628 149.731C200.748 150.31 201.187 150.875 201.951 151.321C203.7 152.331 206.54 152.331 208.289 151.321L218.405 145.441L228.248 151.128C230.01 152.145 232.85 152.139 234.586 151.128C235.397 150.655 235.836 150.05 235.889 149.438C236.035 148.594 236.667 147.776 237.771 147.137C240.312 145.661 244.428 145.668 246.976 147.137Z" fill="#FF6435"/>
<path d="M181.508 191.251L181.521 195.035C181.521 195.992 182.153 196.95 183.417 197.682C184.574 198.353 186.05 198.719 187.56 198.779L187.547 194.995C186.044 194.935 184.561 194.569 183.403 193.898C182.147 193.166 181.515 192.208 181.508 191.251Z" fill="#BCD4D8"/>
<path d="M242.8 195.201L242.787 191.417C242.787 192.388 242.148 193.359 240.865 194.097C239.747 194.742 238.337 195.108 236.881 195.194L236.894 198.979C238.351 198.892 239.761 198.526 240.878 197.881C242.162 197.136 242.807 196.172 242.8 195.201Z" fill="#BCD4D8"/>
<path d="M191.597 201.36L191.584 197.575C191.584 196.917 191.152 196.259 190.287 195.753C189.522 195.308 188.551 195.055 187.547 194.988L187.561 198.772C188.571 198.839 189.536 199.092 190.301 199.537C191.165 200.036 191.597 200.701 191.597 201.36Z" fill="#BCD4D8"/>
<path d="M232.638 197.801L232.651 201.586C232.651 200.914 233.09 200.242 233.975 199.737C234.793 199.265 235.837 199.012 236.901 198.979L236.888 195.194C235.823 195.228 234.779 195.48 233.961 195.953C233.077 196.465 232.638 197.13 232.638 197.801Z" fill="#BCD4D8"/>
<path d="M179.739 205.503L179.753 209.287L189.875 215.166L189.861 211.382L179.739 205.503Z" fill="#BCD4D8"/>
<path d="M191.178 216.995L191.165 213.211C191.165 212.552 190.733 211.887 189.861 211.382L189.875 215.166C190.746 215.671 191.178 216.33 191.178 216.995Z" fill="#BCD4D8"/>
<path d="M194.018 219.841L194.031 223.626C194.151 223.047 194.59 222.482 195.355 222.036C197.104 221.025 199.943 221.025 201.693 222.036L201.679 218.252C199.93 217.234 197.09 217.241 195.341 218.252C194.57 218.698 194.138 219.263 194.018 219.841Z" fill="#BCD4D8"/>
<path d="M181.016 219.602L181.029 223.386C181.029 224.344 181.661 225.302 182.924 226.033C185.458 227.503 189.568 227.503 192.122 226.033C193.286 225.361 193.918 224.504 194.024 223.632L194.011 219.848C193.905 220.719 193.266 221.577 192.109 222.249C189.555 223.725 185.445 223.725 182.911 222.249C181.654 221.517 181.022 220.56 181.016 219.602Z" fill="#BCD4D8"/>
<path d="M201.68 218.252L201.693 222.036L211.809 227.915L211.802 224.131L201.68 218.252Z" fill="#BCD4D8"/>
<path d="M183.43 188.564C180.883 190.034 180.863 192.421 183.397 193.898C184.554 194.569 186.031 194.935 187.54 194.995C188.551 195.061 189.516 195.314 190.28 195.76C192.016 196.771 192.016 198.413 190.26 199.431L179.733 205.509L189.855 211.395C191.604 212.413 191.591 214.055 189.841 215.066C189.023 215.538 187.979 215.798 186.915 215.824C185.459 215.911 184.049 216.277 182.931 216.922C180.378 218.398 180.371 220.779 182.898 222.256C185.425 223.732 189.542 223.725 192.096 222.256C193.26 221.584 193.892 220.726 193.998 219.855C194.118 219.276 194.557 218.711 195.321 218.265C197.071 217.254 199.91 217.254 201.659 218.265L211.775 224.144L244.03 205.523L233.915 199.644C232.166 198.626 232.186 196.977 233.935 195.966C234.753 195.494 235.797 195.241 236.861 195.208C238.317 195.121 239.727 194.755 240.845 194.11C243.398 192.634 243.405 190.26 240.878 188.783C238.344 187.314 234.234 187.307 231.68 188.783C230.516 189.455 229.884 190.313 229.771 191.191C229.658 191.769 229.219 192.335 228.448 192.78C226.699 193.791 223.852 193.798 222.103 192.78L211.981 186.895L202.145 192.574C200.383 193.592 197.543 193.585 195.807 192.574C194.996 192.102 194.557 191.497 194.497 190.885C194.35 190.04 193.725 189.222 192.621 188.577C190.081 187.101 185.964 187.107 183.417 188.577L183.43 188.564Z" fill="white"/>
<path d="M211.802 224.131L211.809 227.915L244.071 209.294L244.057 205.509L211.802 224.131Z" fill="#BCD4D8"/>
<path d="M115.056 141.198L115.069 144.983C115.069 145.94 115.701 146.898 116.964 147.63C118.122 148.301 119.598 148.667 121.108 148.727L121.094 144.943C119.591 144.883 118.108 144.517 116.951 143.845C115.688 143.114 115.056 142.156 115.056 141.198Z" fill="#BCD4D8"/>
<path d="M176.34 145.142L176.327 141.358C176.327 142.329 175.688 143.3 174.405 144.045C173.287 144.69 171.877 145.056 170.421 145.142L170.434 148.926C171.891 148.84 173.301 148.474 174.418 147.829C175.702 147.084 176.347 146.113 176.34 145.142Z" fill="#BCD4D8"/>
<path d="M125.144 151.314L125.131 147.53C125.131 146.871 124.698 146.213 123.834 145.707C123.069 145.262 122.098 145.016 121.094 144.943L121.107 148.727C122.111 148.793 123.082 149.046 123.847 149.492C124.712 149.99 125.144 150.649 125.144 151.314Z" fill="#BCD4D8"/>
<path d="M166.185 147.749L166.198 151.533C166.198 150.862 166.637 150.197 167.515 149.684C168.333 149.212 169.377 148.953 170.441 148.926L170.428 145.142C169.37 145.175 168.32 145.428 167.502 145.9C166.624 146.406 166.178 147.077 166.185 147.749Z" fill="#BCD4D8"/>
<path d="M147.291 159.747L147.304 163.531C147.304 162.56 147.943 161.589 149.227 160.844C151.774 159.374 155.89 159.368 158.431 160.844C159.535 161.489 160.16 162.307 160.293 163.145L160.28 159.361C160.147 158.523 159.528 157.698 158.418 157.06C155.877 155.583 151.76 155.59 149.213 157.06C147.93 157.798 147.285 158.776 147.291 159.747Z" fill="#BCD4D8"/>
<path d="M113.286 155.457L113.293 159.241L123.415 165.12L123.402 161.336L113.286 155.457Z" fill="#BCD4D8"/>
<path d="M167.568 161.25L167.582 165.034L177.617 159.241L177.604 155.457L167.568 161.25Z" fill="#BCD4D8"/>
<path d="M160.278 159.361L160.292 163.145C160.365 163.757 160.797 164.362 161.609 164.834C163.231 165.779 165.805 165.845 167.574 165.034L167.561 161.25C165.792 162.061 163.211 161.995 161.595 161.05C160.784 160.578 160.352 159.973 160.278 159.361Z" fill="#BCD4D8"/>
<path d="M124.711 166.943L124.698 163.159C124.698 162.5 124.266 161.842 123.395 161.336L123.408 165.121C124.273 165.626 124.705 166.284 124.711 166.943Z" fill="#7181E2"/>
<path d="M157.387 169.856L157.373 166.072C157.373 166.65 157.047 167.229 156.396 167.701L156.409 171.485C157.061 171.006 157.387 170.434 157.387 169.856Z" fill="#7181E2"/>
<path d="M127.559 169.789L127.572 173.573C127.685 172.995 128.124 172.429 128.895 171.984C130.645 170.973 133.491 170.966 135.24 171.984L135.227 168.2C133.478 167.182 130.631 167.189 128.882 168.2C128.111 168.645 127.678 169.211 127.559 169.789Z" fill="#BCD4D8"/>
<path d="M114.55 169.55L114.563 173.334C114.563 174.292 115.195 175.249 116.459 175.981C118.986 177.451 123.103 177.451 125.656 175.981C126.82 175.309 127.452 174.451 127.565 173.573L127.552 169.789C127.439 170.667 126.8 171.525 125.643 172.197C123.089 173.673 118.973 173.666 116.445 172.197C115.189 171.465 114.557 170.507 114.55 169.55Z" fill="#BCD4D8"/>
<path d="M135.22 168.2L135.233 171.984L145.349 177.87L145.342 174.085L135.22 168.2Z" fill="#BCD4D8"/>
<path d="M145.342 174.085L145.349 177.87L156.402 171.485L156.395 167.701L145.342 174.085Z" fill="#BCD4D8"/>
<path d="M116.97 138.518C114.423 139.988 114.41 142.369 116.944 143.845C118.101 144.517 119.578 144.883 121.087 144.943C122.091 145.009 123.062 145.262 123.827 145.707C125.563 146.718 125.563 148.361 123.801 149.379L113.279 155.45L123.395 161.33C125.144 162.347 125.124 163.996 123.375 165.007C122.557 165.48 121.513 165.739 120.449 165.766C118.992 165.852 117.582 166.218 116.465 166.863C113.911 168.339 113.905 170.72 116.432 172.197C118.959 173.666 123.076 173.666 125.63 172.197C126.793 171.525 127.425 170.667 127.538 169.789C127.651 169.211 128.09 168.645 128.862 168.2C130.611 167.189 133.457 167.182 135.206 168.2L145.322 174.079L156.375 167.694C157.778 166.67 157.672 165.18 156.049 164.236C155.284 163.79 154.313 163.544 153.309 163.484C151.806 163.411 150.316 163.052 149.166 162.38C146.625 160.904 146.645 158.523 149.199 157.047C151.746 155.577 155.863 155.57 158.403 157.047C159.507 157.692 160.133 158.51 160.266 159.348C160.339 159.96 160.771 160.565 161.582 161.037C163.205 161.981 165.779 162.048 167.548 161.236L177.584 155.444L167.468 149.565C165.719 148.547 165.732 146.905 167.482 145.894C168.3 145.421 169.344 145.162 170.408 145.135C171.864 145.049 173.274 144.683 174.391 144.038C176.945 142.562 176.952 140.181 174.425 138.711C171.897 137.241 167.774 137.235 165.22 138.711C164.056 139.383 163.425 140.241 163.318 141.112C163.199 141.69 162.76 142.256 161.995 142.701C160.246 143.712 157.406 143.712 155.657 142.701L145.541 136.822L135.698 142.508C133.936 143.526 131.096 143.519 129.36 142.508C128.549 142.036 128.11 141.431 128.057 140.819C127.911 139.975 127.279 139.157 126.175 138.518C123.634 137.042 119.518 137.048 116.97 138.518Z" fill="white"/>
<path d="M146.671 45.1176C147.143 45.6962 147.05 46.5408 146.904 47.2724C146.598 48.7289 146.132 50.1588 145.541 51.5221C145.115 52.4998 144.629 53.4375 144.071 54.3353C143.692 54.9605 143.173 55.6255 142.435 55.6721C141.444 55.7386 140.626 54.6146 139.641 54.7875C138.897 54.9272 138.491 55.7718 138.438 56.5233C138.371 57.2749 138.531 58.053 138.351 58.7912C138.039 60.1479 136.715 60.9792 135.511 61.6775C134.388 62.3293 133.257 62.9877 132.133 63.6394C131.88 63.7791 131.601 63.9254 131.335 63.9254C131.268 63.9254 131.202 63.9188 131.142 63.8988C130.889 63.8257 130.703 63.6128 130.55 63.4C129.519 62.0832 128.721 60.5802 128.183 58.9907C127.777 57.7537 127.684 56.1376 128.488 55.2597C128.934 55.0536 129.4 54.8873 129.845 54.7277C131.867 54.0161 133.902 53.1648 135.478 51.7216C137.048 50.2652 138.099 48.0838 137.686 45.9756C137.334 44.1865 136.037 42.7833 134.614 41.5729C134.567 41.5263 134.527 41.4864 134.481 41.4532C134.474 41.4532 134.461 41.4465 134.454 41.4332L134.414 41.3933L133.882 40.9743C138.025 40.8413 141.969 42.6835 145.72 44.4725C146.066 44.6388 146.425 44.8184 146.664 45.111L146.671 45.1176Z" fill="#2A2A3F"/>
<path d="M139.203 63.3336C139.196 65.1359 139.043 66.9183 138.731 68.6807C138.139 68.0023 137.467 67.3838 136.755 66.8119C135.306 65.668 133.59 64.7768 131.754 64.6837C131.621 64.677 131.495 64.677 131.362 64.677L131.342 63.9255C131.608 63.9255 131.887 63.7792 132.14 63.6395C133.264 62.9878 134.395 62.3294 135.518 61.6776C136.722 60.9793 138.046 60.148 138.358 58.7913C138.538 58.0597 138.378 57.275 138.445 56.5234C138.498 55.7719 138.91 54.9273 139.648 54.7876C140.633 54.6081 141.451 55.732 142.442 55.6722C143.173 55.6256 143.692 54.9606 144.078 54.3354C144.636 53.4376 145.115 52.4998 145.548 51.5222L145.661 51.5688C144.982 54.515 144.304 57.4545 143.626 60.3874C143.433 61.2387 143.207 62.1432 142.568 62.7351C141.697 63.5331 140.407 63.5065 139.21 63.327L139.203 63.3336Z" fill="#FFD592"/>
<path d="M134.614 41.5729C136.037 42.7766 137.334 44.1799 137.687 45.9755C138.092 48.0838 137.048 50.2652 135.479 51.7216C133.902 53.1715 131.867 54.0161 129.846 54.7277C129.4 54.8873 128.934 55.0536 128.489 55.2597C127.664 55.6322 126.913 56.1243 126.5 56.9224C126.174 57.5542 126.121 58.299 126.055 59.004C125.789 61.8571 124.984 64.8631 122.836 66.7453C121.22 68.1685 118.952 68.767 116.837 68.4079C114.722 68.0355 112.807 66.7186 111.663 64.8964C109.827 61.9701 110.306 57.6739 113.026 55.5457C115.494 53.6303 119.218 53.6436 121.286 51.296C122.178 50.2918 122.623 48.975 123.122 47.7246C124.1 45.3038 125.436 42.8764 127.624 41.4465C129.427 40.2694 131.934 39.99 133.769 40.981C134.002 41.1007 134.215 41.2403 134.408 41.4L134.448 41.4399C134.448 41.4399 134.468 41.4598 134.474 41.4598C134.521 41.4997 134.561 41.533 134.607 41.5795L134.614 41.5729Z" fill="#2A2A3F"/>
<path d="M146.385 150.283C144.703 150.356 143.027 150.283 141.351 150.051C141.085 141.824 141.49 133.57 142.594 125.41C142.754 125.43 142.92 125.437 143.08 125.457C144.41 125.53 145.733 125.457 147.05 125.151C149.365 124.619 151.506 123.408 153.142 121.706C152.364 131.276 150.861 140.773 148.646 150.117C147.895 150.21 147.143 150.263 146.378 150.283H146.385Z" fill="#1A1A26"/>
<path d="M136.21 200.415C136.19 202.45 136.117 204.479 135.984 206.514C135.379 206.613 134.767 206.653 134.162 206.613C134.069 205.902 133.969 205.184 133.876 204.472C133.483 201.586 133.084 198.699 132.699 195.813C132.579 194.928 132.459 194.011 132.705 193.159C132.865 192.621 133.204 192.109 133.663 191.796C133.876 191.65 134.128 191.543 134.395 191.517C134.448 191.497 134.508 191.49 134.561 191.49L134.787 191.404C135.638 192.98 136.483 194.569 137.44 196.092C137.773 196.624 138.125 197.15 138.491 197.668C140.014 199.83 141.836 201.778 143.878 203.461L143.905 203.434C143.905 203.434 143.951 203.428 143.978 203.428C144.796 203.295 145.647 203.315 146.392 203.68C147.15 204.04 147.749 204.831 147.702 205.676C147.696 205.815 147.676 205.942 147.589 206.055C147.489 206.188 147.323 206.248 147.164 206.294C145.195 206.926 143.153 207.298 141.092 207.392C140.606 207.411 140.087 207.411 139.688 207.152C139.316 206.913 139.11 206.494 138.917 206.095C138.019 204.199 137.108 202.317 136.203 200.422L136.21 200.415Z" fill="#222230"/>
<path d="M141.358 150.05C143.027 150.283 144.71 150.356 146.392 150.283C143.845 163.232 141.305 176.287 141.285 189.502C141.285 194.283 141.664 199.251 143.985 203.428C143.958 203.428 143.938 203.435 143.912 203.435L143.885 203.461C141.843 201.779 140.021 199.83 138.498 197.668C138.139 197.15 137.787 196.618 137.447 196.092L137.547 196.026C137.334 180.663 141.444 165.453 140.919 150.09L140.939 150.004C141.079 150.024 141.218 150.044 141.358 150.05Z" fill="#FFD592"/>
<path d="M137.081 149.179C136.05 148.9 135.039 148.554 134.055 148.155C133.297 147.849 132.532 147.497 131.827 147.058C131.195 146.665 130.61 146.213 130.138 145.654C130.763 136.556 126.886 127.711 126.254 118.593C127.73 119.877 129.566 120.768 131.348 121.619C134.913 123.328 138.737 125.044 142.594 125.41C141.49 133.57 141.078 141.824 141.351 150.05C141.211 150.044 141.071 150.024 140.932 150.004C139.635 149.818 138.345 149.552 137.081 149.179Z" fill="#1C1C2D"/>
<path d="M140.918 150.09C141.45 165.453 137.333 180.663 137.546 196.026L137.447 196.092C136.489 194.569 135.644 192.98 134.793 191.404L134.567 191.49C134.514 191.49 134.454 191.497 134.401 191.517C134.793 185.771 134.733 179.998 134.221 174.258C133.729 168.778 132.831 163.232 133.782 157.818C134.321 154.766 135.451 151.813 137.081 149.186C138.344 149.558 139.635 149.824 140.931 150.01L140.911 150.097L140.918 150.09Z" fill="#F4C178"/>
<path d="M132.293 189.688L132.226 189.728C132.113 189.708 132.013 189.708 131.914 189.721C131.182 181.514 130.457 173.307 129.726 165.107C129.546 163.085 129.367 161.05 129.413 159.015C129.486 154.932 130.451 150.908 131.834 147.064C132.539 147.503 133.304 147.856 134.062 148.162C135.046 148.561 136.057 148.906 137.088 149.186C135.465 151.813 134.328 154.766 133.789 157.818C132.831 163.232 133.736 168.785 134.228 174.258C134.74 179.998 134.793 185.77 134.408 191.517C134.142 191.543 133.889 191.65 133.676 191.796L133.63 191.723C133.098 191.111 132.652 190.426 132.299 189.688H132.293Z" fill="#DBA052"/>
<path d="M131.913 189.714C132.013 189.708 132.119 189.708 132.226 189.721L132.292 189.681C132.645 190.413 133.09 191.104 133.622 191.716L133.669 191.789C133.217 192.102 132.871 192.614 132.711 193.153C132.458 194.004 132.578 194.928 132.705 195.806C133.097 198.693 133.496 201.579 133.882 204.465H133.835C133.197 204.858 132.385 204.931 131.694 204.672H131.687C130.862 201.207 130.044 197.735 129.698 194.197C129.605 193.206 129.552 192.175 129.931 191.251C130.277 190.433 131.055 189.734 131.92 189.701L131.913 189.714Z" fill="#1C1C2D"/>
<path d="M143.034 104.381C144.038 111.251 143.619 118.254 143.1 125.177L143.08 125.456C142.921 125.436 142.754 125.43 142.595 125.41C138.744 125.051 134.913 123.328 131.349 121.619C129.566 120.768 127.731 119.876 126.254 118.593C125.815 118.214 125.41 117.795 125.051 117.343C124.392 113.598 124.738 109.681 126.008 106.11C126.707 104.161 127.678 102.286 128.017 100.244C128.502 97.2712 127.578 94.3051 126.587 91.4453C126.494 91.1394 126.381 90.8335 126.281 90.5342C124.213 84.5753 122.384 78.2705 123.348 72.0323C123.574 70.6025 124.02 69.0994 124.924 68.0287C125.237 67.6496 125.623 67.3304 126.068 67.091C126.487 66.8582 126.939 66.7185 127.405 66.6454C128.622 66.4392 129.939 66.6919 131.162 66.9978C134.162 67.7693 137.075 68.8201 139.881 70.1436C140.859 70.5958 141.81 71.0879 142.761 71.62C143.679 72.1321 144.57 72.6708 145.455 73.2361C144.45 73.1363 143.858 73.3957 143.4 73.6085C142.907 73.8413 142.502 74.1938 142.163 74.6194C142.136 74.6593 142.109 74.6859 142.089 74.7191C138.824 78.9223 139.509 83.1188 140.068 88.4526C140.613 93.8262 142.249 99.0336 143.04 104.387L143.034 104.381Z" fill="#2A2A3F"/>
<path d="M152.178 76.5282C151.28 75.8964 150.482 75.3777 149.764 74.952C150.868 75.5639 151.779 76.1425 152.178 76.5282Z" fill="#2A2A3F"/>
<path d="M168.725 95.3827C165.693 97.5574 162.294 99.2201 158.716 100.278C158.337 100.391 157.938 100.504 157.539 100.464C156.867 100.391 156.315 99.9051 155.823 99.4395C153.223 96.9855 150.809 94.3119 148.634 91.4722C146.446 88.5925 144.484 85.5332 142.801 82.3276C142.03 80.8778 141.305 79.3482 141.238 77.7121C141.199 76.6614 141.478 75.5574 142.083 74.7127C142.103 74.6728 142.13 74.6462 142.156 74.613C142.489 74.1873 142.901 73.8349 143.393 73.6021C143.846 73.3893 144.444 73.1299 145.448 73.2297C146.127 73.2962 146.978 73.5356 148.122 74.0676C148.421 74.2139 148.747 74.3736 149.079 74.5664C149.146 74.6063 149.213 74.6396 149.272 74.6662C149.432 74.7526 149.598 74.8457 149.765 74.9455C150.476 75.3711 151.281 75.8899 152.179 76.5217C155.956 80.1595 159.089 84.4691 161.396 89.1777C162.6 88.3597 163.81 87.535 165.014 86.717C165.134 86.8833 165.254 87.0495 165.367 87.2291C166.85 89.3373 168.06 91.6384 168.951 94.0526C168.991 94.1523 169.025 94.2454 169.064 94.3518C169.131 94.5314 169.197 94.7243 169.151 94.8972C169.098 95.11 168.898 95.2563 168.725 95.3827Z" fill="#2A2A3F"/>
<path d="M142.754 71.6134C143.672 71.8927 145.993 72.9502 148.121 74.0675C146.977 73.5354 146.126 73.296 145.448 73.2295C144.563 72.6642 143.672 72.1255 142.754 71.6134Z" fill="#2A2A3F"/>
<path d="M142.089 74.7193C141.484 75.5639 141.205 76.6679 141.245 77.7187C141.311 79.3547 142.036 80.8844 142.807 82.3342C144.49 85.5398 146.445 88.599 148.64 91.4787C148.667 95.3493 149.904 99.1003 150.861 102.864C152.404 108.89 153.302 115.082 153.535 121.3C153.415 121.439 153.295 121.579 153.156 121.706C151.52 123.401 149.378 124.618 147.064 125.151C145.747 125.456 144.417 125.53 143.093 125.456L143.113 125.177C143.632 118.254 144.051 111.251 143.047 104.381C142.255 99.0338 140.626 93.8264 140.074 88.4461C139.515 83.119 138.83 78.9225 142.096 74.7126L142.089 74.7193Z" fill="#1C1C2D"/>
<path d="M180.404 85.6461C180.337 85.7658 180.264 85.8789 180.177 85.9787C179.818 86.3843 179.246 86.544 178.728 86.7102C174.817 87.9938 171.791 91.0464 168.951 94.0524C168.06 91.6383 166.856 89.3372 165.367 87.229L165.46 87.1625C167.515 86.1848 169.556 85.2005 171.598 84.2096C173.62 83.232 175.695 82.2011 177.198 80.5318C177.87 79.787 178.422 78.9158 179.266 78.3904C179.612 78.1775 180.024 78.0379 180.437 78.0113C181.029 77.9448 181.627 78.1243 181.98 78.6032C182.525 79.3347 182.246 80.3789 181.953 81.2368C181.514 82.5004 181.089 83.7507 180.656 85.0143C180.583 85.2205 180.51 85.44 180.404 85.6395V85.6461Z" fill="#FFD592"/>
<path d="M138.724 68.6805C139.143 69.1461 139.522 69.6249 139.874 70.137C137.068 68.8069 134.155 67.7627 131.155 66.9913C129.932 66.6853 128.608 66.4326 127.398 66.6388C128.262 65.4151 129.819 64.7234 131.355 64.6769C131.488 64.6769 131.614 64.6769 131.747 64.6835C133.583 64.7766 135.305 65.6678 136.749 66.8117C137.46 67.377 138.132 68.0022 138.724 68.6805Z" fill="white"/>
<path d="M126.275 90.5275C126.374 90.8268 126.487 91.1327 126.58 91.4387C123.993 88.3461 121.932 84.7748 121.193 80.8244C120.329 76.2554 121.473 71.1611 124.858 67.9755L124.911 68.022C124 69.0928 123.554 70.5958 123.335 72.0257C122.371 78.2639 124.2 84.5686 126.268 90.5275H126.275Z" fill="#1C1C2D"/>
<path d="M218.079 32.1424C217.853 32.4683 217.441 32.721 217.055 32.5947C216.756 32.5016 216.563 32.2355 216.396 31.9629C215.106 29.8014 214.854 27.1878 214.514 24.6938C214.474 24.4411 214.415 24.1617 214.182 24.0686C213.996 23.9822 213.783 24.0753 213.597 24.1684C211.635 25.1128 209.487 25.6648 207.312 25.7845C206.66 25.8244 205.982 25.8111 205.323 25.718C204.013 25.5318 202.776 25.0463 201.951 24.0553C201.639 23.663 201.386 23.0977 201.652 22.672C201.772 22.4858 201.958 22.3661 202.144 22.253C204.186 21.0759 206.567 20.5904 208.589 19.3933C210.085 18.5088 211.355 17.2518 212.965 16.5801C214.574 15.9084 216.756 16.0813 217.633 17.571C217.793 17.8371 217.933 18.1563 218.225 18.2427C218.372 18.2893 218.531 18.2627 218.678 18.2228C219.436 18.0299 220.194 17.5511 220.952 17.7373C221.544 17.8836 221.983 18.409 222.236 18.961C222.495 19.5197 222.628 20.1249 222.867 20.6769C223.473 22.0668 224.77 23.1775 224.936 24.6805C225.036 25.6914 224.603 26.6757 224.164 27.5934C223.453 29.1164 222.741 30.6261 222.03 32.1491H221.976L222.003 31.9562C222.123 31.0584 222.069 30.1273 221.843 29.2428C221.744 28.8504 221.604 28.4647 221.331 28.1654C221.052 27.8794 220.62 27.7131 220.234 27.8528C219.968 27.9659 219.768 28.2119 219.602 28.4647C219.09 29.2428 218.711 30.1007 218.471 30.9985C218.372 31.3776 218.292 31.7899 218.072 32.1225L218.079 32.1424Z" fill="#2A2A3F"/>
<path d="M211.415 41.4998C210.916 41.3601 210.438 41.0808 210.025 40.7549C209.526 40.3625 209.094 39.9036 208.735 39.3982C208.615 39.2386 208.502 39.0723 208.402 38.906C208.363 38.8528 208.329 38.7863 208.303 38.7265C207.418 37.2434 206.946 35.4743 206.587 33.7785C206.028 31.1116 205.603 28.4314 205.337 25.718C205.995 25.8111 206.673 25.8177 207.325 25.7845C209.5 25.6648 211.655 25.1128 213.61 24.1684C213.796 24.0753 214.009 23.9822 214.195 24.0686C214.428 24.1617 214.494 24.4411 214.528 24.6938C214.873 27.1944 215.12 29.8014 216.41 31.9629C216.576 32.2289 216.769 32.5015 217.068 32.5947C217.447 32.7144 217.866 32.4616 218.092 32.1424C218.318 31.8099 218.392 31.3976 218.491 31.0185C218.731 30.1206 219.117 29.2627 219.622 28.4846C219.788 28.2319 219.981 27.9858 220.254 27.8728C220.633 27.7331 221.072 27.8994 221.351 28.1853C221.617 28.4846 221.757 28.8703 221.863 29.2627C222.089 30.1472 222.143 31.0717 222.023 31.9762H221.976C221.83 33.0735 221.178 34.1043 220.24 34.7029C220.234 34.6763 220.234 34.6497 220.234 34.6164L220.134 34.53C219.17 35.6539 218.192 36.7845 217.208 37.9085C216.29 38.9792 215.352 40.0499 214.182 40.8347C213.523 41.2736 212.759 41.6128 211.974 41.5796C211.788 41.5729 211.615 41.5397 211.435 41.4931L211.415 41.4998Z" fill="#FFD592"/>
<path d="M217.228 156.515C218 156.428 218.758 156.275 219.503 156.029C219.503 156.129 219.496 156.242 219.483 156.342H219.789C220.826 156.98 220.8 158.623 220.048 159.58C219.29 160.538 218.073 160.99 216.922 161.389C213.843 162.467 210.757 163.544 207.632 164.502C205.71 165.087 203.748 165.626 201.739 165.719C200.303 165.785 198.507 165.34 198.201 163.937C197.935 162.713 198.992 161.622 199.983 160.857C202.943 158.516 206.168 156.501 209.547 154.832C211.828 156.222 214.588 156.807 217.235 156.515H217.228Z" fill="#313049"/>
<path d="M217.228 156.515C217.953 143.227 218.638 129.833 216.603 116.684C216.796 117.17 217.002 117.649 217.195 118.134C218.319 120.881 219.376 123.674 220.341 126.501C220.52 136.363 220.241 146.213 219.496 156.036C218.751 156.275 217.993 156.435 217.222 156.521L217.228 156.515Z" fill="#222230"/>
<path d="M236.927 164.828C236.249 165.18 235.471 165.347 234.706 165.5C234.287 165.586 233.862 165.659 233.443 165.726L233.423 165.633C234.147 155.451 234.852 145.149 233.097 135.106C232.724 132.965 232.245 130.843 231.481 128.815C230.729 126.84 229.725 124.971 228.88 123.029C225.994 116.418 224.99 109.109 222.263 102.426C223.254 102.16 224.145 101.634 224.983 101.036C225.475 100.683 225.941 100.311 226.406 99.9316L226.719 100.071C226.459 100.617 226.187 101.169 225.947 101.714C225.542 102.632 225.196 103.729 225.681 104.614C226.2 105.545 227.397 105.804 228.455 105.884C229.14 105.93 229.858 105.937 230.523 105.784C231.128 107.167 231.274 108.73 231.388 110.24C231.574 112.774 231.7 115.321 231.78 117.862C231.82 119.152 231.853 120.482 232.392 121.652C232.884 122.73 233.748 123.581 234.487 124.512C236.715 127.319 237.745 130.91 238.051 134.481C238.364 138.046 238.005 141.637 237.719 145.202C237.36 149.844 237.114 154.486 237.021 159.135C236.974 160.957 236.967 162.799 237.346 164.575C237.213 164.675 237.067 164.761 236.921 164.834L236.927 164.828Z" fill="#222230"/>
<path d="M236.928 164.828C237.779 165.559 237.845 166.943 237.353 167.973C236.841 169.024 235.897 169.782 234.979 170.507C233.875 171.372 232.778 172.236 231.68 173.094C230.656 173.892 229.612 174.717 228.368 175.11C227.238 175.462 226.021 175.442 224.83 175.349C223.593 175.249 222.369 175.083 221.152 174.85C220.055 174.637 218.732 174.092 218.698 172.975C218.672 172.223 219.29 171.631 219.849 171.126C222.17 169.091 224.491 167.062 226.812 165.027C227.869 165.619 229.106 165.892 230.324 165.945C231.361 165.992 232.412 165.879 233.443 165.712C233.862 165.646 234.287 165.573 234.706 165.486C235.464 165.34 236.249 165.174 236.928 164.814V164.828Z" fill="#3A3A56"/>
<path d="M220.348 126.494C219.383 123.674 218.326 120.874 217.202 118.127C217.009 117.642 216.803 117.163 216.61 116.678C214.249 110.985 211.808 105.159 211.915 99.0669C212.686 99.5125 213.464 99.9514 214.243 100.384C216.71 101.76 219.523 103.124 222.263 102.405H222.27C224.997 109.103 226.001 116.405 228.887 123.016C229.732 124.958 230.736 126.82 231.487 128.802C232.246 130.837 232.731 132.952 233.104 135.093C234.859 145.135 234.154 155.437 233.429 165.619L233.449 165.712C232.419 165.878 231.368 165.992 230.33 165.945C229.113 165.892 227.876 165.619 226.819 165.027C226.593 164.914 226.38 164.774 226.18 164.628L226.081 164.449C227.131 151.593 224.578 138.737 220.354 126.487L220.348 126.494Z" fill="#1A1A26"/>
<path d="M209.541 154.832C209.374 154.732 209.215 154.626 209.055 154.519L209.082 154.473C209.368 133.796 201.7 113.625 201.972 92.9485C202.318 93.2145 202.684 93.4606 203.056 93.6934C205.963 95.5622 208.902 97.3512 211.901 99.0803C211.802 105.172 214.242 110.998 216.597 116.691C218.632 129.839 217.94 143.233 217.222 156.521C214.575 156.82 211.822 156.235 209.534 154.839L209.541 154.832Z" fill="#1A1A26"/>
<path d="M228.208 95.163H228.135C229.705 88.8117 229.964 82.1545 228.88 75.7035C227.969 70.2367 226.12 64.9695 225.109 59.5227C225.103 59.4828 225.089 59.4362 225.089 59.403C224.777 57.7137 224.557 55.9646 224.996 54.3086C225.349 52.9652 226.1 51.7548 227.018 50.7173C227.763 49.8727 228.634 49.1079 229.692 48.7222C230.483 48.4362 231.381 48.3896 232.159 48.6556C232.511 48.9815 232.844 49.3274 233.17 49.6931C236.096 53.045 237.22 57.5541 238.144 61.9036C238.923 65.5215 239.628 69.1793 239.807 72.8836C240.186 80.4586 238.371 87.9605 236.548 95.3359C235.837 95.316 235.112 95.296 234.394 95.2894C232.332 95.2362 230.264 95.1963 228.202 95.1697L228.208 95.163Z" fill="#2A2A3F"/>
<path d="M230.529 105.771C229.858 105.93 229.146 105.917 228.461 105.871C227.403 105.784 226.206 105.525 225.688 104.6C225.202 103.716 225.548 102.625 225.954 101.701C226.193 101.155 226.466 100.603 226.725 100.058C227.47 98.4818 228.182 96.8856 228.208 95.1565C230.27 95.1831 232.338 95.223 234.4 95.2762C234.393 97.1118 234.234 98.9606 233.948 100.77C233.648 102.592 233.056 104.594 231.434 105.452C231.148 105.598 230.848 105.704 230.536 105.764L230.529 105.771Z" fill="#FFD592"/>
<path d="M209.839 67.9491C209.912 67.7696 209.985 67.5767 210.072 67.3705L221.065 56.8161L218.371 54.8076L222.003 53.4908L225.8 43.4618L225.993 43.4352C227.908 45.3306 230.229 46.7804 232.165 48.6425C231.387 48.3765 230.482 48.4164 229.697 48.7091C228.64 49.1014 227.769 49.8596 227.024 50.7042C226.106 51.7417 225.355 52.9521 225.002 54.2955C224.563 55.9582 224.776 57.7006 225.095 59.3899L224.936 59.4165C224.091 63.4933 223.24 67.5767 222.927 71.74C222.388 78.9691 223.492 86.2116 224.477 93.3942C224.822 95.8815 225.148 98.3888 224.882 100.876L224.982 101.022C224.144 101.628 223.253 102.146 222.262 102.406H222.255C219.515 103.117 216.702 101.754 214.235 100.384C213.457 99.945 212.672 99.5127 211.907 99.0671C208.908 97.338 205.968 95.549 203.062 93.6802C202.689 93.4474 202.317 93.208 201.978 92.9353C201.572 92.6294 201.186 92.2968 200.88 91.8845L200.362 91.6318C201.951 83.026 201.971 74.214 201.293 65.4751C201.193 64.1783 201.067 62.8748 200.94 61.5779C200.521 57.3282 199.976 52.9987 200.807 48.8088C201.652 44.619 204.186 40.5023 208.196 39.0125L208.402 38.8928C208.502 39.0591 208.615 39.2254 208.735 39.385C208.735 39.385 205.576 41.7326 205.316 43.3687C205.057 44.9914 203.84 53.544 203.84 53.544L206.294 53.8765L204.512 56.3838L209.825 67.4769L209.845 67.9292L209.839 67.9491Z" fill="#2A2A3F"/>
<path d="M228.135 95.1631H228.208C228.181 96.8922 227.463 98.4884 226.725 100.065L226.412 99.9249C225.947 100.304 225.481 100.676 224.989 101.029L224.889 100.883C225.149 98.3953 224.823 95.888 224.484 93.4007C223.499 86.2247 222.395 78.9823 222.934 71.7465C223.24 67.5899 224.098 63.4998 224.943 59.423L225.102 59.3964C225.102 59.4363 225.109 59.4828 225.122 59.5161C226.133 64.9629 227.982 70.2301 228.893 75.6969C229.977 82.1479 229.718 88.8051 228.148 95.1564L228.135 95.1631Z" fill="#1C1C2D"/>
<path d="M214.914 56.0379C216.091 53.4309 217.275 50.9303 218.286 49.0548C220.041 45.7761 220.607 43.1491 220.726 41.3202C220.846 39.4182 220.494 38.374 220.494 38.374C225.349 40.163 225.794 43.4617 225.794 43.4617L221.997 53.4908L218.365 54.8076L221.059 56.816L210.066 67.3705C211.209 64.5972 213.058 60.1679 214.914 56.0313V56.0379Z" fill="#1A1A26"/>
<path d="M215.432 45.2574C215.2 44.2465 214.94 43.2356 214.641 42.238L220.487 38.374C220.487 38.374 220.839 39.4115 220.72 41.3202H220.68C219.436 43.7078 217.847 45.9357 215.991 47.891L215.951 47.8644C215.805 46.9799 215.625 46.1219 215.419 45.2574H215.432Z" fill="#E2E2E2"/>
<path d="M215.998 47.8977C217.853 45.9357 219.443 43.7078 220.686 41.3269H220.726C220.606 43.1558 220.041 45.7828 218.285 49.0615C217.274 50.937 216.097 53.4376 214.913 56.0446C214.534 53.5905 214.302 51.1032 214.202 48.6292V48.4896H214.109C214.667 47.4853 215.066 46.3813 215.279 45.2507C215.332 45.2574 215.379 45.2574 215.439 45.2707C215.645 46.1353 215.818 46.9998 215.971 47.8777L216.011 47.9043L215.998 47.8977Z" fill="white"/>
<path d="M214.648 42.238L214.442 42.3776L212.792 45.0445L212.387 45.111L211.515 45.0445C211.602 43.8674 211.562 42.6769 211.422 41.4998C211.602 41.5463 211.775 41.5729 211.961 41.5862C212.752 41.6261 213.511 41.2803 214.169 40.8414C215.339 40.0632 216.277 38.9858 217.195 37.9151C218.179 36.7912 219.157 35.6606 220.121 34.5366L220.221 34.6231C220.221 34.6231 220.221 34.6763 220.228 34.7095C220.314 35.9332 220.407 37.1636 220.494 38.3873L214.648 42.2513V42.238Z" fill="#F4C178"/>
<path d="M215.28 45.2374C214.315 45.1443 213.351 45.1044 212.38 45.1044L212.786 45.0379L214.435 42.371L214.641 42.2313C214.941 43.2223 215.2 44.2398 215.433 45.2507C215.38 45.244 215.333 45.244 215.273 45.2307L215.28 45.2374Z" fill="white"/>
<path d="M214.11 48.4828H214.196V48.6224C214.309 51.1031 214.542 53.5904 214.921 56.0378C213.065 60.1678 211.217 64.5971 210.073 67.377L209.86 67.5832L209.82 67.4967L209.235 52.4465H209.381C209.833 51.0167 210.419 49.6333 211.117 48.3032C211.157 48.3099 211.19 48.3232 211.23 48.3232C212.174 48.5094 213.152 48.5626 214.11 48.4828Z" fill="#21DBF9"/>
<path d="M211.236 48.0707C211.256 47.0598 211.283 46.0556 211.303 45.0447H211.509L212.38 45.1112C213.345 45.1112 214.309 45.1511 215.28 45.2442C215.067 46.3748 214.668 47.4788 214.109 48.483C213.152 48.5695 212.068 48.4897 211.117 48.3035C211.123 48.217 211.236 48.1571 211.236 48.0707Z" fill="#21DBF9"/>
<path d="M211.23 44.7186C211.043 45.4901 210.871 46.2682 210.684 47.0397C209.999 46.215 209.414 45.3105 208.929 44.3662L208.736 39.3982C209.095 39.897 209.527 40.3625 210.026 40.7549C210.445 41.0808 210.917 41.3601 211.416 41.4998C211.556 42.6769 211.595 43.8674 211.509 45.0445H211.303C211.309 44.9448 211.309 44.8384 211.309 44.7386L211.223 44.7186H211.23Z" fill="#E2E2E2"/>
<path d="M211.116 48.3033C210.418 49.6335 209.833 51.0168 209.38 52.4333H209.234L208.928 44.3662C209.414 45.3106 209.999 46.2151 210.684 47.0397C210.87 46.2683 211.043 45.4902 211.229 44.7187L211.316 44.7386C211.316 44.8384 211.316 44.9448 211.309 45.0446C211.289 46.0555 211.262 47.0597 211.242 48.0706C211.203 48.1437 211.156 48.2169 211.123 48.3033H211.116Z" fill="white"/>
<path d="M208.928 44.3661L209.234 52.4465L209.819 67.4968L204.505 56.4036L206.287 53.8964L203.833 53.5638C203.833 53.5638 205.05 45.0112 205.31 43.3885C205.569 41.7524 208.728 39.4048 208.728 39.4048L208.921 44.3728L208.928 44.3661Z" fill="#1A1A26"/>
<path d="M188.019 81.7755C186.895 79.3614 185.385 77.1268 183.57 75.1715C183.503 75.105 183.45 75.0385 183.383 74.9787C183.217 74.819 183.031 74.6661 182.818 74.5796L182.718 74.4865C185.798 71.0349 188.139 66.9913 190.473 62.981C193.233 58.1993 196.006 53.4175 198.42 48.4629C199.478 46.3081 200.482 44.0868 202.012 42.2446C203.555 40.3957 205.723 38.9326 208.124 38.8395L208.303 38.7397C208.33 38.793 208.37 38.8595 208.403 38.9193L208.197 39.039C204.186 40.5221 201.653 44.6454 200.808 48.8353C199.97 53.0252 200.522 57.348 200.941 61.6044C201.074 62.9012 201.194 64.2048 201.293 65.5016L201.027 65.5216C197.649 70.6159 194.011 75.5307 190.107 80.2459C189.529 80.9509 188.937 81.6558 188.225 82.2078L188.032 81.7888L188.019 81.7755Z" fill="#2A2A3F"/>
<path d="M188.019 81.7756C187.247 82.3808 186.456 82.9661 185.658 83.5314C185.591 83.2055 185.518 82.8929 185.432 82.567C184.92 80.6384 184.115 78.7895 183.044 77.1003C182.838 76.7877 182.619 76.4618 182.293 76.3022L182.273 76.2823C182.619 75.9098 182.944 75.5241 183.25 75.1118L183.383 74.9788C183.45 75.0453 183.503 75.1118 183.57 75.1716C185.379 77.1202 186.895 79.3615 188.019 81.7756Z" fill="white"/>
<path d="M183.051 77.0937C184.121 78.7829 184.926 80.6318 185.438 82.5604C184.075 84.0102 182.319 85.0743 180.404 85.6396C180.504 85.4468 180.583 85.2206 180.657 85.0145C181.095 83.7509 181.521 82.5006 181.953 81.237C182.253 80.3724 182.532 79.3349 181.98 78.6033C181.628 78.1178 181.036 77.9449 180.437 78.0114V77.9715C181.095 77.4594 181.707 76.8941 182.273 76.2756L182.293 76.2956C182.618 76.4552 182.838 76.7811 183.044 77.0937H183.051Z" fill="#DBA052"/>
<path d="M215.073 43.7876L215.818 47.0397L214.109 48.4829L213.697 45.1111L215.073 43.7876Z" fill="#21DBF9"/>
<path d="M211.303 45.0445L211.243 47.7047L210.771 46.6672L211.23 44.7186L211.303 45.0445Z" fill="#21DBF9"/>
</g>
<path fill-rule="evenodd" clip-rule="evenodd" d="M113.492 37.3639C115.236 34.7336 116.253 31.5781 116.253 28.1852C116.253 19.0027 108.809 11.5588 99.6262 11.5588C90.4437 11.5588 82.9998 19.0027 82.9998 28.1852C82.9998 37.3678 90.4437 44.8117 99.6262 44.8117C103.032 44.8117 106.199 43.7874 108.836 42.0302L116.918 44.4792L113.492 37.3639Z" fill="white"/>
<path d="M113.492 37.3639L113.214 37.1801L113.11 37.3377L113.192 37.5081L113.492 37.3639ZM108.836 42.0302L108.932 41.7119L108.782 41.6664L108.651 41.7535L108.836 42.0302ZM116.918 44.4792L116.821 44.7975L117.546 45.017L117.217 44.335L116.918 44.4792ZM115.92 28.1852C115.92 31.5107 114.924 34.6025 113.214 37.1801L113.769 37.5477C115.548 34.8646 116.585 31.6455 116.585 28.1852H115.92ZM99.6262 11.8914C108.625 11.8914 115.92 19.1864 115.92 28.1852H116.585C116.585 18.8191 108.992 11.2263 99.6262 11.2263V11.8914ZM83.3323 28.1852C83.3323 19.1864 90.6273 11.8914 99.6262 11.8914V11.2263C90.26 11.2263 82.6672 18.8191 82.6672 28.1852H83.3323ZM99.6262 44.4791C90.6273 44.4791 83.3323 37.1841 83.3323 28.1852H82.6672C82.6672 37.5514 90.26 45.1442 99.6262 45.1442V44.4791ZM108.651 41.7535C106.068 43.4755 102.965 44.4791 99.6262 44.4791V45.1442C103.1 45.1442 106.331 44.0994 109.02 42.3069L108.651 41.7535ZM108.739 42.3484L116.821 44.7975L117.014 44.161L108.932 41.7119L108.739 42.3484ZM117.217 44.335L113.791 37.2196L113.192 37.5081L116.618 44.6235L117.217 44.335Z" fill="#999999" fill-opacity="0.2"/>
<path fill-rule="evenodd" clip-rule="evenodd" d="M243.379 26.7229C241.635 24.0926 240.618 20.9372 240.618 17.5444C240.618 8.36187 248.062 0.917969 257.245 0.917969C266.427 0.917969 273.871 8.36187 273.871 17.5444C273.871 26.7269 266.427 34.1708 257.245 34.1708C253.839 34.1708 250.672 33.1465 248.035 31.3892L239.953 33.8383L243.379 26.7229Z" fill="white"/>
<path d="M243.379 26.7229L243.656 26.5391L243.761 26.6967L243.679 26.8672L243.379 26.7229ZM248.035 31.3892L247.939 31.071L248.089 31.0255L248.22 31.1125L248.035 31.3892ZM239.953 33.8383L240.05 34.1565L239.325 34.376L239.654 33.694L239.953 33.8383ZM240.951 17.5444C240.951 20.8698 241.947 23.9616 243.656 26.5391L243.102 26.9067C241.322 24.2236 240.286 21.0045 240.286 17.5444H240.951ZM257.245 1.2505C248.246 1.2505 240.951 8.54552 240.951 17.5444H240.286C240.286 8.17822 247.879 0.585441 257.245 0.585441V1.2505ZM273.539 17.5444C273.539 8.54552 266.244 1.2505 257.245 1.2505V0.585441C266.611 0.585441 274.204 8.17822 274.204 17.5444H273.539ZM257.245 33.8383C266.244 33.8383 273.539 26.5432 273.539 17.5444H274.204C274.204 26.9105 266.611 34.5033 257.245 34.5033V33.8383ZM248.22 31.1125C250.803 32.8346 253.906 33.8383 257.245 33.8383V34.5033C253.771 34.5033 250.54 33.4585 247.851 31.6659L248.22 31.1125ZM248.132 31.7075L240.05 34.1565L239.857 33.5201L247.939 31.071L248.132 31.7075ZM239.654 33.694L243.08 26.5786L243.679 26.8672L240.253 33.9825L239.654 33.694Z" fill="#999999" fill-opacity="0.2"/>
<path d="M254.86 9.34898C255.718 8.85377 256.775 8.85377 257.632 9.34898L262.363 12.08C263.22 12.5753 263.749 13.4904 263.749 14.4809V19.943C263.749 20.9334 263.22 21.8486 262.363 22.3438L257.632 25.0749C256.775 25.5701 255.718 25.5701 254.86 25.0749L250.13 22.3438C249.272 21.8486 248.744 20.9334 248.744 19.943V14.4809C248.744 13.4904 249.272 12.5753 250.13 12.08L254.86 9.34898Z" fill="#02AC5B"/>
<path d="M259.712 14.3241L254.947 19.522L252.781 17.1593" stroke="#FFFBF6" stroke-width="1.73265" stroke-linecap="round" stroke-linejoin="round"/>
<path d="M97.9079 19.3247C98.7656 18.8295 99.8224 18.8295 100.68 19.3247L105.41 22.0558C106.268 22.551 106.797 23.4662 106.797 24.4566V29.9187C106.797 30.9091 106.268 31.8243 105.41 32.3195L100.68 35.0506C99.8224 35.5458 98.7656 35.5458 97.9079 35.0506L93.1776 32.3195C92.3198 31.8243 91.7915 30.9091 91.7915 29.9187V24.4566C91.7915 23.4662 92.3198 22.551 93.1776 22.0558L97.9079 19.3247Z" fill="#02AC5B"/>
<path d="M102.759 24.2998L97.9939 29.4977L95.8281 27.135" stroke="#FFFBF6" stroke-width="1.73265" stroke-linecap="round" stroke-linejoin="round"/>
</g>
<defs>
<clipPath id="clip0_1_1564">
<rect width="342" height="238.743" fill="white" transform="translate(0 0.917725)"/>
</clipPath>
<clipPath id="clip1_1_1564">
<rect width="304.696" height="270.779" fill="white" transform="translate(6.56549 14.5193)"/>
</clipPath>
<clipPath id="clip2_1_1564">
<rect width="145.055" height="211.701" fill="white" transform="translate(105.611 16.2144)"/>
</clipPath>
</defs>
</svg>
