<svg width="573" height="400" viewBox="0 0 573 400" fill="none" xmlns="http://www.w3.org/2000/svg">
<g clip-path="url(#clip0_1_1255)">
<rect width="573" height="400" fill="#F0ECE4"/>
<g clip-path="url(#clip1_1_1255)">
<path d="M515.924 32.6091C519.805 35.2338 521.349 39.5665 521.349 44.0247V44.7908L519.516 43.7359V42.8694C519.516 39.2777 518.348 35.9748 515.171 34.1413C511.993 32.3077 510.838 34.2668 510.838 37.8083C510.838 45.9462 521.4 51.8486 521.4 61.0916C521.4 65.5499 519.817 68.0741 515.937 66.2155V68.903L514.304 67.9611V65.2736C510.386 62.674 508.791 58.3162 508.791 53.8077V51.9365L510.624 52.9914V54.9506C510.624 58.5925 511.83 61.8703 515.045 63.7289C518.26 65.5875 519.466 63.6912 519.466 60.0618C519.466 52.0621 508.904 46.122 508.904 36.8288C508.904 32.1319 510.537 29.9216 514.292 31.6547V28.7788L515.924 29.7207V32.5966V32.6091Z" fill="#E5DDCE"/>
<path d="M507 297.256C507 294.129 508.407 293.199 511.019 294.706C513.631 296.213 515.037 298.763 515.037 301.902V311.911C515.037 315.038 513.631 315.968 511.019 314.461C508.407 312.954 507 310.404 507 307.265V297.256ZM509.65 309.01C509.65 310.354 510.14 311.208 511.019 311.71C511.848 312.188 512.388 311.937 512.388 310.58V300.144C512.388 298.8 511.86 297.921 511.019 297.444C510.152 296.942 509.65 297.218 509.65 298.574V309.01ZM521.48 300.96L523.941 302.38L513.48 326.781L511.019 325.361L521.48 300.96ZM520.149 315.98C520.149 312.853 521.555 311.924 524.167 313.431C526.78 314.938 528.186 317.487 528.186 320.627V330.636C528.186 333.763 526.78 334.692 524.167 333.185C521.555 331.678 520.149 329.129 520.149 325.989V315.98ZM522.798 327.735C522.798 329.079 523.288 329.933 524.167 330.435C524.996 330.912 525.536 330.661 525.536 329.305V318.869C525.536 317.525 525.009 316.646 524.167 316.169C523.301 315.666 522.798 315.943 522.798 317.299V327.735Z" fill="#E5DDCE"/>
<path d="M127 248.309C127 244.993 128.482 242.281 131.257 240.686C134.033 239.091 135.515 240.07 135.515 243.386V253.998C135.515 257.313 134.033 260.026 131.257 261.621C128.482 263.216 127 262.236 127 258.921V248.309ZM129.813 257.527C129.813 258.958 130.341 259.26 131.257 258.72C132.136 258.205 132.702 257.288 132.702 255.856V244.78C132.702 243.348 132.136 243.072 131.257 243.587C130.328 244.114 129.813 245.018 129.813 246.45V257.527ZM142.359 234.507L144.971 233L133.869 271.693L131.257 273.2L142.359 234.507ZM140.952 252.064C140.952 248.748 142.434 246.036 145.21 244.441C147.985 242.833 149.467 243.825 149.467 247.141V257.753C149.467 261.068 147.985 263.781 145.21 265.376C142.434 266.983 140.952 265.991 140.952 262.676V252.064ZM143.766 261.282C143.766 262.713 144.293 263.015 145.21 262.475C146.089 261.96 146.654 261.043 146.654 259.611V248.535C146.654 247.103 146.089 246.827 145.21 247.342C144.28 247.869 143.766 248.773 143.766 250.205V261.282Z" fill="#E5DDCE"/>
<path d="M106.806 25.6875L99.196 24.2181V28.8396L92 33.0593L79.6676 60.7883L71.3288 65.146L66.1799 77.604L55.8945 83.5441L55.9196 87.0354L68.566 79.7515L73.7149 67.281L82.0537 62.9358L95.0768 34.6416L99.196 32.2555V35.9226L106.806 25.6875Z" fill="#E5DDCE"/>
<path d="M46.4755 104.203V23L41.0377 26.1396V107.342L41 107.367V112.981L115.132 70.295V64.6814L46.4755 104.203Z" fill="#E5DDCE"/>
<path d="M472.039 162.645C481.542 157.09 481.448 139.248 471.829 122.793C462.21 106.339 446.708 97.5033 437.206 103.058C427.703 108.613 427.798 126.456 437.417 142.91C447.036 159.364 462.537 168.2 472.039 162.645Z" fill="#E5DDCE"/>
<path d="M465.608 161.491C462.72 161.491 459.404 160.461 456.026 158.502C443.304 151.155 432.944 133.31 432.944 118.704C432.944 109.612 436.937 104.187 443.631 104.187C446.519 104.187 449.835 105.217 453.213 107.176C465.935 114.522 476.295 132.38 476.295 146.973C476.295 156.066 472.302 161.491 465.608 161.491Z" fill="#F5F1EA"/>
<path d="M464.139 157.635C461.64 157.635 458.764 156.744 455.838 155.048C444.824 148.694 435.857 133.234 435.857 120.601C435.857 112.739 439.311 108.03 445.113 108.03C447.612 108.03 450.488 108.921 453.414 110.617C464.428 116.971 473.395 132.431 473.395 145.064C473.395 152.939 469.941 157.635 464.139 157.635Z" fill="#E5DDCE"/>
<path d="M462.205 152.612C460.208 152.612 457.922 151.896 455.586 150.553C446.808 145.479 439.662 133.159 439.662 123.087C439.662 116.821 442.425 113.066 447.034 113.066C449.031 113.066 451.316 113.782 453.652 115.125C462.431 120.199 469.576 132.519 469.576 142.591C469.576 148.87 466.814 152.612 462.205 152.612Z" fill="#F5F1EA"/>
<path d="M460.573 148.355C459.016 148.355 457.22 147.79 455.386 146.735C448.492 142.754 442.891 133.096 442.891 125.184C442.891 120.262 445.051 117.323 448.68 117.323C450.237 117.323 452.033 117.875 453.867 118.943C460.761 122.924 466.362 132.581 466.362 140.493C466.362 145.416 464.202 148.355 460.573 148.355Z" fill="#E5DDCE"/>
<path d="M459.052 144.399C457.884 144.399 456.553 143.984 455.184 143.193C450.048 140.229 445.866 133.021 445.866 127.131C445.866 123.464 447.473 121.279 450.174 121.279C451.341 121.279 452.673 121.693 454.042 122.484C459.178 125.448 463.36 132.657 463.36 138.547C463.36 142.214 461.752 144.399 459.052 144.399Z" fill="#F5F1EA"/>
<path d="M457.057 139.187C456.416 139.187 455.688 138.961 454.935 138.522C452.121 136.902 449.823 132.946 449.823 129.718C449.823 127.709 450.702 126.503 452.184 126.503C452.825 126.503 453.553 126.729 454.307 127.169C457.12 128.789 459.418 132.745 459.418 135.972C459.418 137.982 458.539 139.187 457.057 139.187Z" fill="#E5DDCE"/>
<path d="M41.7009 215.993C35.9993 219.283 31.3778 227.258 31.3778 233.788C31.3778 234.039 31.3904 234.328 31.4155 234.605C31.4155 234.73 31.4406 234.856 31.4532 234.981C31.5285 235.546 31.6416 236.061 31.8174 236.539C31.8802 236.702 31.943 236.853 32.0183 236.991C32.0937 237.141 33.3244 239.063 33.7388 240.055C34.7937 242.567 35.8235 242.215 35.7356 247.276H35.7482C35.7482 247.603 35.7482 247.942 35.7356 248.281C35.7356 248.318 35.7356 248.369 35.7356 248.406C35.7356 248.469 35.7482 248.507 35.7482 248.57C35.7482 248.758 35.7482 248.946 35.7482 249.122C35.8486 250.428 35.9868 251.797 36.351 252.902C36.6775 253.919 37.2803 254.459 38.1971 254.623C38.4106 254.66 38.6492 254.635 38.9003 254.598C38.9883 254.635 39.0762 254.673 39.1515 254.711C39.3273 254.786 39.4906 254.899 39.6413 255.037C39.6664 255.062 39.6915 255.075 39.7166 255.087C39.9427 255.213 40.2692 255.226 40.6711 255.125C40.9725 255.05 41.3116 254.912 41.6758 254.711C42.0399 254.51 42.379 254.259 42.6804 253.995C43.0949 253.631 43.4339 253.229 43.66 252.839C43.6977 252.777 43.7228 252.726 43.7479 252.676C43.9112 252.35 44.0619 252.023 44.2502 251.697C44.2879 251.634 44.3256 251.571 44.3507 251.508C45.3554 250.629 46.1591 249.411 46.6991 248.092C47.1261 247.037 47.5029 245.794 47.6033 244.789C47.7038 243.747 47.6159 242.793 47.6159 241.801C47.6159 241.713 47.641 241.625 47.641 241.537C47.641 241.436 47.6284 241.348 47.6159 241.248C47.6159 240.972 47.6159 240.695 47.6159 240.432H47.641C47.5531 235.006 48.7838 233.964 49.9266 229.857C50.2406 228.727 51.2578 226.128 51.3206 225.927C51.3457 225.839 51.3709 225.751 51.4085 225.663C51.622 224.935 51.7853 224.206 51.8858 223.49C51.9234 223.227 51.9485 222.975 51.9737 222.712C51.9988 222.41 52.0113 222.109 52.0113 221.87C52.0113 215.327 47.3898 212.703 41.6883 215.993H41.7009Z" fill="#E5DDCE"/>
<path d="M39.8795 204.389C39.9548 203.573 40.0553 202.744 40.1307 201.928C40.1683 201.513 40.1558 201.174 40.093 200.822C40.0553 200.596 39.892 200.132 39.9925 199.843C39.7037 200.697 39.4525 201.563 39.3018 202.405C39.1511 203.221 39.126 204.037 39.0506 204.829C38.8999 206.536 38.812 208.219 38.7869 209.852L39.6032 209.387C39.6283 207.755 39.7037 206.084 39.8669 204.389H39.8795Z" fill="#E5DDCE"/>
<path d="M47.5404 204.414L48.947 200.534C49.173 199.906 49.3991 199.265 49.6377 198.637C49.9266 197.846 50.1149 197.042 50.3661 196.239C50.3912 196.163 50.4163 196.075 50.4163 196C49.9642 196.741 49.3363 197.582 49.0098 198.361C48.7837 198.901 48.6079 199.466 48.4195 200.006C47.6912 202.028 46.9628 204.037 46.2344 206.059H46.9628C47.1637 205.532 47.3646 204.979 47.553 204.427L47.5404 204.414Z" fill="#E5DDCE"/>
<path d="M58.6416 199.366C56.6574 201.3 55.2006 204.075 53.7062 206.537L54.2588 206.901C54.8239 205.959 55.4016 205.03 55.9667 204.088C56.3686 203.422 56.8207 202.756 57.1974 202.066C57.6872 201.162 58.1016 200.257 58.6416 199.366Z" fill="#E5DDCE"/>
<path d="M57.0722 214.888L57.6876 215.139C57.6876 215.139 59.2448 212.401 59.4081 212.163C60.036 211.171 60.689 210.216 61.3797 209.299C62.0705 208.383 62.7989 207.491 63.5398 206.65C64.2933 205.808 65.0719 205.029 65.7752 204.1C65.8631 203.987 66.4659 203.133 66.1394 203.359C66.0766 203.397 66.0138 203.447 65.9636 203.485C64.9966 204.175 64.1803 204.904 63.3012 205.883C62.4974 206.775 61.7314 207.704 60.9904 208.684C60.2495 209.664 59.5462 210.681 58.8932 211.723C58.7299 211.974 57.022 214.863 57.0722 214.888Z" fill="#E5DDCE"/>
<path d="M63.929 215.353C63.1755 216.018 62.4345 216.734 61.7187 217.487C60.9903 218.266 60.2745 219.095 59.6089 219.974C59.4456 220.188 57.7126 222.549 57.7628 222.586L58.2902 223.001C60.6638 219.321 63.5145 216.659 66.4407 214.009C65.5992 214.285 64.783 214.599 63.9415 215.353H63.929Z" fill="#E5DDCE"/>
<path d="M62.899 227.258C61.0655 228.313 59.232 229.38 57.3984 230.435V231.377C58.7799 230.573 60.1613 229.782 61.5427 228.978C62.7734 228.263 64.0042 227.559 65.2475 226.843C65.7372 226.555 66.2396 226.278 66.7293 225.99C67.1061 225.776 67.4829 225.5 67.847 225.223C68.1484 225.01 68.4373 224.784 68.7513 224.596C68.2489 224.52 67.5331 224.47 66.9303 224.872C66.5284 225.148 66.1265 225.387 65.7247 225.625C64.7828 226.165 63.8535 226.705 62.9116 227.245L62.899 227.258Z" fill="#E5DDCE"/>
<path d="M68.7638 234.906C68.4498 234.78 68.0856 234.969 67.6712 235.119C67.1563 235.308 66.6414 235.509 66.1265 235.71C65.0967 236.112 64.0669 236.539 63.0246 236.991C60.9524 237.895 58.8677 238.887 56.783 239.967L56.7453 240.934C56.9714 240.821 57.1974 240.695 57.4361 240.582C59.5207 239.515 61.5929 238.548 63.665 237.669C64.6948 237.229 65.7246 236.815 66.7544 236.426C67.2693 236.225 67.7716 236.049 68.2865 235.86C68.4247 235.81 68.5628 235.735 68.7135 235.672C68.7763 235.647 68.8265 235.609 68.8893 235.584C69.0024 235.534 69.5047 235.182 69.5675 235.207C69.2912 235.119 69.0275 235.019 68.7638 234.919V234.906Z" fill="#E5DDCE"/>
<path d="M32.7844 215.302C33.0858 216.056 33.3746 216.797 33.676 217.55L34.4421 216.784C34.3416 216.533 34.2412 216.269 34.1407 216.018C33.6509 214.775 33.1486 213.519 32.6588 212.276C32.3825 211.585 32.1439 210.857 31.8425 210.191C31.4532 209.299 30.9257 208.521 30.4736 207.704C30.6997 208.822 30.8755 210.003 31.1392 211.083C31.3276 211.849 31.6792 212.514 31.9555 213.205C32.2318 213.908 32.5081 214.599 32.7844 215.302Z" fill="#E5DDCE"/>
<path d="M23.7424 221.707C22.9888 221.632 22.1851 221.669 21.4065 221.657C21.9339 222.109 22.4991 222.561 23.1898 222.712C23.9182 222.875 24.6214 223.114 25.3373 223.34C26.7564 223.792 28.1504 224.294 29.5192 224.847L30.0467 223.829C28.6778 223.264 27.2713 222.762 25.8396 222.31C25.1615 222.096 24.4833 221.782 23.7424 221.707Z" fill="#E5DDCE"/>
<path d="M24.2073 235.773C22.3612 236.413 20.4524 237.367 18.5686 238.598C17.5011 239.289 16.2202 240.218 15.4541 241.612C15.8183 241.524 16.2453 241.122 16.6095 240.859C18.1165 239.728 19.7114 238.761 21.231 237.983C23.1147 237.016 24.9985 236.363 26.7818 236.049C26.9827 236.011 29.1553 235.747 29.1302 235.823L29.4944 234.768C29.5195 234.68 27.1586 234.981 26.9325 235.019C26.0409 235.182 25.1241 235.433 24.1948 235.747L24.2073 235.773Z" fill="#E5DDCE"/>
<path d="M23.7421 248.695C23.9179 248.645 25.8519 248.205 25.8394 248.243L26.1157 247.201C26.1157 247.1 24.8975 247.439 24.7594 247.464C24.2821 247.577 23.8049 247.703 23.3277 247.841C22.3607 248.13 21.3811 248.482 20.4016 248.896C19.422 249.31 18.4299 249.8 17.4378 250.34C16.1945 251.018 14.9136 251.91 13.6828 252.852C12.9921 253.379 12.5651 253.844 12 254.648C12.9796 253.957 13.9591 253.442 14.9387 252.789C15.9182 252.136 16.9103 251.546 17.9025 251.031C19.8741 249.989 21.8458 249.197 23.7547 248.683L23.7421 248.695Z" fill="#E5DDCE"/>
<path d="M22.4108 259.634C21.5945 260.211 20.7782 260.801 19.9619 261.379C19.2963 261.856 18.5051 262.296 17.9023 263.037C17.513 263.527 17.1237 264.016 16.7469 264.531C16.9981 264.255 17.3874 264.192 17.6511 264.016C17.7893 263.929 17.9274 263.828 18.0656 263.74C18.8819 263.175 19.673 262.535 20.5019 261.957C21.7452 261.078 22.9885 260.186 24.2317 259.307C25.3494 258.516 26.4671 257.712 27.5848 256.921L27.4844 256.042C25.789 257.247 24.1062 258.453 22.4108 259.659V259.634Z" fill="#E5DDCE"/>
<path d="M273.032 92.7388L268.134 95.5645V48.7592L273.032 45.9336V92.7388Z" fill="#E5DDCE"/>
<path d="M280.102 88.6574L275.204 91.483V55.6036L280.102 52.778V88.6574Z" fill="#E5DDCE"/>
<path d="M287.348 84.4754L282.463 87.3011V63.0633L287.348 60.2377V84.4754Z" fill="#E5DDCE"/>
<path d="M293.69 80.8084L288.805 83.634V28.8291L293.69 26.0034V80.8084Z" fill="#E5DDCE"/>
<path d="M300.044 77.1413L295.147 79.967V33.4882L300.044 30.6626V77.1413Z" fill="#E5DDCE"/>
<path d="M306.701 73.2985L301.803 76.1241V37.7456L306.701 34.9199V73.2985Z" fill="#E5DDCE"/>
</g>
<path d="M527.65 251.309V244.754L524.385 242.845C524.196 240.308 523.744 237.721 523.091 235.159L525.992 234.606L523.543 227.498L520.793 228.013H520.693C519.788 225.878 518.758 223.806 517.616 221.847C517.402 221.47 517.189 221.119 516.963 220.754L518.645 217.853L514.388 212.114L512.743 214.952C511.123 213.069 509.39 211.411 507.582 210.017V205.534L502.659 202.695V207.078C500.938 206.337 499.268 205.935 497.711 205.848L497.183 204.303L496.065 201L491.77 201.728L492.147 202.846L493.378 206.488C492.737 206.739 492.11 207.041 491.532 207.442C490.803 207.907 490.113 208.497 489.497 209.163L486.609 205.207L484.097 209.402L486.923 213.27C486.194 214.99 485.68 216.999 485.403 219.247L482.05 217.263L482 223.794L485.29 225.728C485.479 228.264 485.906 230.839 486.559 233.413L483.645 233.916L486.069 241.036L488.932 240.521C489.987 243.071 491.23 245.532 492.637 247.83L490.942 250.706L495.186 256.483L496.857 253.67C498.477 255.566 500.197 257.249 502.006 258.643V263.101L506.903 265.99L506.928 261.62C508.749 262.411 510.495 262.825 512.128 262.913L513.785 267.761L518.068 266.982L516.435 262.235C517.314 261.883 518.131 261.406 518.897 260.816C519.399 260.426 519.864 259.999 520.303 259.51L523.204 263.44L523.92 262.222L525.678 259.221L524.56 257.701L522.853 255.378C523.568 253.632 524.071 251.61 524.334 249.35L527.688 251.309H527.65ZM500.938 217.64C502.156 217.753 503.462 218.192 504.844 218.984C511.223 222.663 516.41 232.572 516.41 241.074C516.41 243.724 515.908 245.921 515.016 247.592C513.057 251.271 509.239 252.339 504.844 249.815C498.477 246.135 493.29 236.239 493.29 227.737C493.29 221.068 496.492 217.213 500.951 217.665L500.938 217.64Z" fill="#E5DDCE"/>
<path d="M547.844 269.393V266.216L546.262 265.287C546.174 264.056 545.948 262.8 545.634 261.557L547.04 261.293L545.86 257.852L544.528 258.103H544.478C544.039 257.073 543.549 256.069 542.984 255.114C542.883 254.938 542.77 254.763 542.67 254.587L543.486 253.18L541.427 250.392L540.635 251.774C539.857 250.857 539.015 250.053 538.136 249.388V247.215L535.75 245.846V247.969C534.909 247.617 534.105 247.416 533.351 247.366L533.1 246.612L532.56 245.017L530.476 245.369L530.664 245.909L531.254 247.667C530.94 247.793 530.639 247.943 530.363 248.132C530.011 248.358 529.672 248.634 529.37 248.973L527.976 247.052L526.758 249.086L528.127 250.957C527.776 251.786 527.524 252.766 527.399 253.846L525.779 252.891L525.754 256.056L527.349 256.998C527.436 258.229 527.65 259.472 527.964 260.728L526.545 260.966L527.713 264.42L529.094 264.169C529.597 265.4 530.212 266.593 530.89 267.71L530.061 269.104L532.121 271.905L532.925 270.536C533.703 271.453 534.545 272.269 535.424 272.947V275.107L537.797 276.501V274.391C538.689 274.781 539.53 274.982 540.334 275.019L541.138 277.368L543.21 276.991L542.419 274.693C542.846 274.53 543.248 274.291 543.612 274.002C543.85 273.814 544.076 273.6 544.29 273.362L545.696 275.271L546.048 274.68L546.902 273.223L546.362 272.483L545.533 271.352C545.885 270.511 546.123 269.531 546.249 268.439L547.869 269.381L547.844 269.393ZM534.909 253.08C535.499 253.13 536.139 253.344 536.793 253.733C539.882 255.516 542.394 260.313 542.394 264.433C542.394 265.714 542.155 266.781 541.715 267.585C540.774 269.368 538.915 269.883 536.793 268.665C533.703 266.881 531.191 262.084 531.191 257.965C531.191 254.738 532.736 252.866 534.896 253.08H534.909Z" fill="#E5DDCE"/>
<path d="M547.128 232.572V228.704L545.194 227.574C545.081 226.067 544.817 224.547 544.428 223.028L546.148 222.701L544.704 218.506L543.084 218.808H543.021C542.494 217.552 541.878 216.321 541.2 215.153C541.075 214.927 540.949 214.726 540.811 214.513L541.803 212.792L539.291 209.402L538.324 211.084C537.37 209.967 536.34 208.987 535.273 208.171V205.521L532.372 203.838V206.425C531.354 205.986 530.362 205.747 529.445 205.697L529.131 204.78L528.466 202.834L525.929 203.261L526.155 203.926L526.884 206.074C526.507 206.224 526.13 206.4 525.791 206.639C525.364 206.915 524.95 207.254 524.585 207.656L522.877 205.32L521.395 207.807L523.066 210.092C522.639 211.11 522.325 212.29 522.174 213.621L520.19 212.453L520.152 216.309L522.099 217.452C522.212 218.959 522.463 220.478 522.852 221.998L521.132 222.299L522.563 226.506L524.259 226.205C524.874 227.712 525.615 229.169 526.444 230.525L525.439 232.22L527.951 235.636L528.931 233.978C529.885 235.096 530.902 236.088 531.97 236.917V239.554L534.871 241.262V238.688C535.963 239.153 536.993 239.404 537.96 239.454L538.94 242.317L541.464 241.853L540.497 239.052C541.012 238.851 541.502 238.562 541.954 238.211C542.242 237.985 542.519 237.721 542.782 237.432L544.49 239.755L544.917 239.027L545.96 237.256L545.294 236.352L544.277 234.983C544.704 233.953 545.005 232.76 545.156 231.429L547.14 232.584L547.128 232.572ZM531.342 212.667C532.058 212.73 532.836 212.993 533.653 213.458C537.42 215.631 540.484 221.483 540.484 226.519C540.484 228.089 540.183 229.382 539.668 230.374C538.513 232.547 536.252 233.187 533.653 231.68C529.885 229.508 526.821 223.655 526.821 218.632C526.821 214.689 528.704 212.416 531.342 212.679V212.667Z" fill="#E5DDCE"/>
<path d="M589 128L49 437" stroke="#999999" stroke-opacity="0.7" stroke-dasharray="12 12"/>
<path d="M-88.5 70L589 454" stroke="#999999" stroke-opacity="0.7" stroke-dasharray="12 12"/>
<g clip-path="url(#clip2_1_1255)">
<path d="M235.07 321.05L235.05 326.74C235.05 328.18 234.1 329.62 232.2 330.72C230.46 331.73 228.24 332.28 225.97 332.37L225.99 326.68C228.25 326.59 230.48 326.04 232.22 325.03C234.11 323.93 235.06 322.49 235.07 321.05Z" fill="#200D00"/>
<path d="M142.91 326.99L142.93 321.3C142.93 322.76 143.89 324.22 145.82 325.33C147.5 326.3 149.62 326.85 151.81 326.98L151.79 332.67C149.6 332.54 147.48 331.99 145.8 331.02C143.87 329.9 142.9 328.45 142.91 326.99Z" fill="#200D00"/>
<path d="M219.9 336.25L219.92 330.56C219.92 329.57 220.57 328.58 221.87 327.82C223.02 327.15 224.48 326.77 225.99 326.67L225.97 332.36C224.45 332.46 223 332.84 221.85 333.51C220.55 334.26 219.9 335.26 219.9 336.25Z" fill="#200D00"/>
<path d="M158.19 330.91L158.17 336.6C158.17 335.59 157.51 334.58 156.18 333.82C154.95 333.11 153.38 332.73 151.78 332.68L151.8 326.99C153.4 327.04 154.97 327.42 156.2 328.13C157.53 328.9 158.19 329.9 158.19 330.91Z" fill="#200D00"/>
<path d="M237.73 342.48L237.71 348.17L222.49 357.02L222.51 351.33L237.73 342.48Z" fill="#200D00"/>
<path d="M220.53 359.76L220.55 354.07C220.55 353.08 221.2 352.08 222.51 351.32L222.49 357.01C221.18 357.77 220.53 358.76 220.53 359.76Z" fill="#7181E2"/>
<path d="M216.26 364.04L216.24 369.73C216.06 368.86 215.4 368.01 214.25 367.34C211.62 365.82 207.35 365.82 204.72 367.34L204.74 361.65C207.37 360.12 211.64 360.13 214.27 361.65C215.43 362.32 216.08 363.17 216.26 364.04Z" fill="#200D00"/>
<path d="M235.8 363.68L235.78 369.37C235.78 370.81 234.83 372.25 232.93 373.35C229.12 375.56 222.94 375.56 219.1 373.35C217.35 372.34 216.4 371.05 216.24 369.74L216.26 364.05C216.42 365.36 217.38 366.65 219.12 367.66C222.96 369.88 229.14 369.88 232.95 367.66C234.84 366.56 235.79 365.12 235.8 363.68Z" fill="#200D00"/>
<path d="M204.73 361.65L204.72 367.34L189.5 376.19L189.52 370.5L204.73 361.65Z" fill="#200D00"/>
<path d="M232.17 317.01C236 319.22 236.03 322.81 232.22 325.03C230.48 326.04 228.26 326.59 225.99 326.68C224.47 326.78 223.02 327.16 221.87 327.83C219.26 329.35 219.26 331.82 221.9 333.35L237.73 342.49L222.51 351.34C219.88 352.87 219.9 355.34 222.53 356.86C223.76 357.57 225.33 357.96 226.93 358C229.12 358.13 231.24 358.68 232.92 359.65C236.76 361.87 236.77 365.45 232.97 367.67C229.17 369.89 222.98 369.88 219.14 367.67C217.39 366.66 216.44 365.37 216.28 364.06C216.1 363.19 215.44 362.34 214.29 361.67C211.66 360.15 207.39 360.15 204.76 361.67L189.55 370.51L141.02 342.49L156.23 333.65C158.86 332.12 158.83 329.64 156.2 328.12C154.97 327.41 153.4 327.03 151.8 326.98C149.61 326.85 147.49 326.3 145.81 325.33C141.97 323.11 141.96 319.54 145.76 317.32C149.56 315.1 155.75 315.1 159.59 317.32C161.34 318.33 162.29 319.62 162.46 320.94C162.63 321.81 163.29 322.66 164.45 323.33C167.08 324.85 171.36 324.86 173.99 323.33L189.21 314.48L204 323.02C206.65 324.55 210.92 324.54 213.53 323.02C214.75 322.31 215.41 321.4 215.5 320.48C215.72 319.21 216.66 317.98 218.32 317.01C222.14 314.79 228.33 314.8 232.16 317.01H232.17Z" fill="#E5D6BB"/>
<path d="M189.52 370.5L189.5 376.19L141 348.18L141.02 342.49L189.52 370.5Z" fill="#200D00"/>
<path d="M356.45 262.89L356.43 268.58C356.43 270.02 355.48 271.46 353.58 272.56C351.84 273.57 349.62 274.12 347.35 274.21L347.37 268.52C349.63 268.43 351.86 267.88 353.6 266.87C355.5 265.77 356.45 264.33 356.45 262.89Z" fill="#200D00"/>
<path d="M264.29 268.82L264.31 263.13C264.31 264.59 265.27 266.05 267.2 267.17C268.88 268.14 271 268.69 273.19 268.82L273.17 274.51C270.98 274.38 268.86 273.83 267.18 272.86C265.25 271.74 264.28 270.28 264.29 268.82Z" fill="#200D00"/>
<path d="M341.28 278.1L341.3 272.41C341.3 271.42 341.95 270.43 343.25 269.67C344.4 269 345.86 268.63 347.37 268.52L347.35 274.21C345.84 274.31 344.38 274.69 343.23 275.36C341.93 276.11 341.28 277.1 341.28 278.1Z" fill="#200D00"/>
<path d="M279.57 272.74L279.55 278.43C279.55 277.42 278.89 276.42 277.57 275.65C276.34 274.94 274.77 274.55 273.17 274.51L273.19 268.82C274.78 268.87 276.36 269.25 277.59 269.96C278.91 270.72 279.58 271.73 279.57 272.74Z" fill="#200D00"/>
<path d="M307.97 290.78L307.95 296.47C307.95 295.01 306.99 293.55 305.06 292.43C301.23 290.22 295.04 290.21 291.22 292.43C289.56 293.4 288.62 294.63 288.42 295.89L288.44 290.2C288.64 288.94 289.57 287.7 291.24 286.74C295.06 284.52 301.25 284.53 305.08 286.74C307.01 287.85 307.98 289.32 307.97 290.78Z" fill="#200D00"/>
<path d="M359.11 284.32L359.09 290.01L343.88 298.85L343.89 293.17L359.11 284.32Z" fill="#200D00"/>
<path d="M277.49 293.04L277.47 298.73L262.38 290.01L262.4 284.32L277.49 293.04Z" fill="#200D00"/>
<path d="M288.44 290.2L288.42 295.89C288.31 296.81 287.66 297.72 286.44 298.43C284 299.85 280.13 299.95 277.47 298.73L277.49 293.04C280.15 294.26 284.03 294.16 286.46 292.74C287.68 292.03 288.33 291.12 288.44 290.2Z" fill="#200D00"/>
<path d="M341.92 301.6L341.94 295.91C341.94 294.92 342.59 293.93 343.9 293.17L343.88 298.86C342.58 299.62 341.93 300.61 341.92 301.6Z" fill="#200D00"/>
<path d="M292.8 305.98L292.82 300.29C292.82 301.16 293.31 302.03 294.29 302.74L294.27 308.43C293.29 307.71 292.8 306.85 292.8 305.98Z" fill="#200D00"/>
<path d="M337.65 305.88L337.63 311.57C337.46 310.7 336.8 309.85 335.64 309.18C333.01 307.66 328.73 307.65 326.1 309.18L326.12 303.49C328.75 301.96 333.03 301.97 335.66 303.49C336.82 304.16 337.47 305.01 337.65 305.88Z" fill="#200D00"/>
<path d="M357.2 305.52L357.18 311.21C357.18 312.65 356.23 314.09 354.33 315.19C350.53 317.4 344.34 317.4 340.5 315.19C338.75 314.18 337.8 312.89 337.63 311.57L337.65 305.88C337.82 307.2 338.78 308.49 340.52 309.5C344.36 311.72 350.55 311.71 354.35 309.5C356.24 308.4 357.19 306.96 357.2 305.52Z" fill="#200D00"/>
<path d="M326.12 303.49L326.11 309.18L310.89 318.02L310.91 312.33L326.12 303.49Z" fill="#200D00"/>
<path d="M310.91 312.33L310.89 318.02L294.27 308.43L294.29 302.74L310.91 312.33Z" fill="#200D00"/>
<path d="M353.56 258.86C357.39 261.07 357.41 264.65 353.6 266.87C351.86 267.88 349.64 268.43 347.37 268.52C345.86 268.62 344.4 269 343.25 269.67C340.64 271.19 340.64 273.66 343.29 275.19L359.11 284.32L343.9 293.16C341.27 294.69 341.3 297.17 343.93 298.69C345.16 299.4 346.73 299.79 348.33 299.83C350.52 299.96 352.64 300.51 354.32 301.48C358.16 303.7 358.17 307.28 354.37 309.5C350.57 311.72 344.38 311.71 340.54 309.5C338.79 308.49 337.84 307.2 337.67 305.88C337.5 305.01 336.84 304.16 335.68 303.49C333.05 301.97 328.77 301.96 326.14 303.49L310.93 312.33L294.31 302.73C292.2 301.19 292.36 298.95 294.8 297.53C295.95 296.86 297.41 296.49 298.92 296.4C301.18 296.29 303.42 295.75 305.15 294.74C308.97 292.52 308.94 288.94 305.1 286.72C301.26 284.5 295.08 284.5 291.26 286.72C289.6 287.69 288.66 288.92 288.46 290.18C288.35 291.1 287.7 292.01 286.48 292.72C284.04 294.14 280.17 294.24 277.51 293.02L262.42 284.31L277.63 275.47C280.26 273.94 280.24 271.47 277.61 269.95C276.38 269.24 274.81 268.85 273.21 268.81C271.02 268.68 268.9 268.13 267.22 267.16C263.38 264.94 263.37 261.36 267.17 259.15C270.97 256.94 277.17 256.93 281.01 259.15C282.76 260.16 283.71 261.45 283.87 262.76C284.05 263.63 284.71 264.48 285.86 265.15C288.49 266.67 292.76 266.67 295.39 265.15L310.6 256.31L325.4 264.86C328.05 266.39 332.32 266.38 334.93 264.86C336.15 264.15 336.81 263.24 336.89 262.32C337.11 261.05 338.06 259.82 339.72 258.86C343.54 256.64 349.73 256.65 353.56 258.86Z" fill="#FF6435"/>
<path d="M255.12 325.19L255.14 330.88C255.14 332.32 256.09 333.76 257.99 334.86C259.73 335.87 261.95 336.42 264.22 336.51L264.2 330.82C261.94 330.73 259.71 330.18 257.97 329.17C256.08 328.07 255.13 326.63 255.12 325.19Z" fill="#BCD4D8"/>
<path d="M347.28 331.13L347.26 325.44C347.26 326.9 346.3 328.36 344.37 329.47C342.69 330.44 340.57 330.99 338.38 331.12L338.4 336.81C340.59 336.68 342.71 336.13 344.39 335.16C346.32 334.04 347.29 332.59 347.28 331.13Z" fill="#BCD4D8"/>
<path d="M270.29 340.39L270.27 334.7C270.27 333.71 269.62 332.72 268.32 331.96C267.17 331.29 265.71 330.91 264.2 330.81L264.22 336.5C265.74 336.6 267.19 336.98 268.34 337.65C269.64 338.4 270.29 339.4 270.29 340.39Z" fill="#BCD4D8"/>
<path d="M332 335.04L332.02 340.73C332.02 339.72 332.68 338.71 334.01 337.95C335.24 337.24 336.81 336.86 338.41 336.81L338.39 331.12C336.79 331.17 335.22 331.55 333.99 332.26C332.66 333.03 332 334.03 332 335.04Z" fill="#BCD4D8"/>
<path d="M252.46 346.62L252.48 352.31L267.7 361.15L267.68 355.46L252.46 346.62Z" fill="#BCD4D8"/>
<path d="M269.66 363.9L269.64 358.21C269.64 357.22 268.99 356.22 267.68 355.46L267.7 361.15C269.01 361.91 269.66 362.9 269.66 363.9Z" fill="#BCD4D8"/>
<path d="M273.93 368.18L273.95 373.87C274.13 373 274.79 372.15 275.94 371.48C278.57 369.96 282.84 369.96 285.47 371.48L285.45 365.79C282.82 364.26 278.55 364.27 275.92 365.79C274.76 366.46 274.11 367.31 273.93 368.18Z" fill="#BCD4D8"/>
<path d="M254.38 367.82L254.4 373.51C254.4 374.95 255.35 376.39 257.25 377.49C261.06 379.7 267.24 379.7 271.08 377.49C272.83 376.48 273.78 375.19 273.94 373.88L273.92 368.19C273.76 369.5 272.8 370.79 271.06 371.8C267.22 374.02 261.04 374.02 257.23 371.8C255.34 370.7 254.39 369.26 254.38 367.82Z" fill="#BCD4D8"/>
<path d="M285.45 365.79L285.47 371.48L300.68 380.32L300.67 374.63L285.45 365.79Z" fill="#BCD4D8"/>
<path d="M258.01 321.15C254.18 323.36 254.15 326.95 257.96 329.17C259.7 330.18 261.92 330.73 264.19 330.82C265.71 330.92 267.16 331.3 268.31 331.97C270.92 333.49 270.92 335.96 268.28 337.49L252.45 346.63L267.67 355.48C270.3 357.01 270.28 359.48 267.65 361C266.42 361.71 264.85 362.1 263.25 362.14C261.06 362.27 258.94 362.82 257.26 363.79C253.42 366.01 253.41 369.59 257.21 371.81C261.01 374.03 267.2 374.02 271.04 371.81C272.79 370.8 273.74 369.51 273.9 368.2C274.08 367.33 274.74 366.48 275.89 365.81C278.52 364.29 282.79 364.29 285.42 365.81L300.63 374.65L349.13 346.65L333.92 337.81C331.29 336.28 331.32 333.8 333.95 332.28C335.18 331.57 336.75 331.19 338.35 331.14C340.54 331.01 342.66 330.46 344.34 329.49C348.18 327.27 348.19 323.7 344.39 321.48C340.58 319.27 334.4 319.26 330.56 321.48C328.81 322.49 327.86 323.78 327.69 325.1C327.52 325.97 326.86 326.82 325.7 327.49C323.07 329.01 318.79 329.02 316.16 327.49L300.94 318.64L286.15 327.18C283.5 328.71 279.23 328.7 276.62 327.18C275.4 326.47 274.74 325.56 274.65 324.64C274.43 323.37 273.49 322.14 271.83 321.17C268.01 318.95 261.82 318.96 257.99 321.17L258.01 321.15Z" fill="white"/>
<path d="M300.67 374.63L300.68 380.32L349.19 352.32L349.17 346.63L300.67 374.63Z" fill="#BCD4D8"/>
<path d="M155.2 249.93L155.22 255.62C155.22 257.06 156.17 258.5 158.07 259.6C159.81 260.61 162.03 261.16 164.3 261.25L164.28 255.56C162.02 255.47 159.79 254.92 158.05 253.91C156.15 252.81 155.2 251.37 155.2 249.93Z" fill="#BCD4D8"/>
<path d="M247.35 255.86L247.33 250.17C247.33 251.63 246.37 253.09 244.44 254.21C242.76 255.18 240.64 255.73 238.45 255.86L238.47 261.55C240.66 261.42 242.78 260.87 244.46 259.9C246.39 258.78 247.36 257.32 247.35 255.86Z" fill="#BCD4D8"/>
<path d="M170.37 265.14L170.35 259.45C170.35 258.46 169.7 257.47 168.4 256.71C167.25 256.04 165.79 255.67 164.28 255.56L164.3 261.25C165.81 261.35 167.27 261.73 168.42 262.4C169.72 263.15 170.37 264.14 170.37 265.14Z" fill="#BCD4D8"/>
<path d="M232.08 259.78L232.1 265.47C232.1 264.46 232.76 263.46 234.08 262.69C235.31 261.98 236.88 261.59 238.48 261.55L238.46 255.86C236.87 255.91 235.29 256.29 234.06 257C232.74 257.76 232.07 258.77 232.08 259.78Z" fill="#BCD4D8"/>
<path d="M203.67 277.82L203.69 283.51C203.69 282.05 204.65 280.59 206.58 279.47C210.41 277.26 216.6 277.25 220.42 279.47C222.08 280.44 223.02 281.67 223.22 282.93L223.2 277.24C223 275.98 222.07 274.74 220.4 273.78C216.58 271.56 210.39 271.57 206.56 273.78C204.63 274.89 203.66 276.36 203.67 277.82Z" fill="#BCD4D8"/>
<path d="M152.54 271.37L152.55 277.06L167.77 285.9L167.75 280.21L152.54 271.37Z" fill="#BCD4D8"/>
<path d="M234.16 280.08L234.18 285.77L249.27 277.06L249.25 271.37L234.16 280.08Z" fill="#BCD4D8"/>
<path d="M223.2 277.24L223.22 282.93C223.33 283.85 223.98 284.76 225.2 285.47C227.64 286.89 231.51 286.99 234.17 285.77L234.15 280.08C231.49 281.3 227.61 281.2 225.18 279.78C223.96 279.07 223.31 278.16 223.2 277.24Z" fill="#BCD4D8"/>
<path d="M169.72 288.64L169.7 282.95C169.7 281.96 169.05 280.97 167.74 280.21L167.76 285.9C169.06 286.66 169.71 287.65 169.72 288.64Z" fill="#7181E2"/>
<path d="M218.85 293.02L218.83 287.33C218.83 288.2 218.34 289.07 217.36 289.78L217.38 295.47C218.36 294.75 218.85 293.89 218.85 293.02Z" fill="#7181E2"/>
<path d="M174 292.92L174.02 298.61C174.19 297.74 174.85 296.89 176.01 296.22C178.64 294.7 182.92 294.69 185.55 296.22L185.53 290.53C182.9 289 178.62 289.01 175.99 290.53C174.83 291.2 174.18 292.05 174 292.92Z" fill="#BCD4D8"/>
<path d="M154.44 292.56L154.46 298.25C154.46 299.69 155.41 301.13 157.31 302.23C161.11 304.44 167.3 304.44 171.14 302.23C172.89 301.22 173.84 299.93 174.01 298.61L173.99 292.92C173.82 294.24 172.86 295.53 171.12 296.54C167.28 298.76 161.09 298.75 157.29 296.54C155.4 295.44 154.45 294 154.44 292.56Z" fill="#BCD4D8"/>
<path d="M185.52 290.53L185.54 296.22L200.75 305.07L200.74 299.38L185.52 290.53Z" fill="#BCD4D8"/>
<path d="M200.74 299.38L200.75 305.07L217.37 295.47L217.36 289.78L200.74 299.38Z" fill="#BCD4D8"/>
<path d="M158.08 245.9C154.25 248.11 154.23 251.69 158.04 253.91C159.78 254.92 162 255.47 164.27 255.56C165.78 255.66 167.24 256.04 168.39 256.71C171 258.23 171 260.7 168.35 262.23L152.53 271.36L167.74 280.2C170.37 281.73 170.34 284.21 167.71 285.73C166.48 286.44 164.91 286.83 163.31 286.87C161.12 287 159 287.55 157.32 288.52C153.48 290.74 153.47 294.32 157.27 296.54C161.07 298.75 167.26 298.75 171.1 296.54C172.85 295.53 173.8 294.24 173.97 292.92C174.14 292.05 174.8 291.2 175.96 290.53C178.59 289.01 182.87 289 185.5 290.53L200.71 299.37L217.33 289.77C219.44 288.23 219.28 285.99 216.84 284.57C215.69 283.9 214.23 283.53 212.72 283.44C210.46 283.33 208.22 282.79 206.49 281.78C202.67 279.56 202.7 275.98 206.54 273.76C210.37 271.55 216.56 271.54 220.38 273.76C222.04 274.73 222.98 275.96 223.18 277.22C223.29 278.14 223.94 279.05 225.16 279.76C227.6 281.18 231.47 281.28 234.13 280.06L249.22 271.35L234.01 262.51C231.38 260.98 231.4 258.51 234.03 256.99C235.26 256.28 236.83 255.89 238.43 255.85C240.62 255.72 242.74 255.17 244.42 254.2C248.26 251.98 248.27 248.4 244.47 246.19C240.67 243.98 234.47 243.97 230.63 246.19C228.88 247.2 227.93 248.49 227.77 249.8C227.59 250.67 226.93 251.52 225.78 252.19C223.15 253.71 218.88 253.71 216.25 252.19L201.04 243.35L186.24 251.9C183.59 253.43 179.32 253.42 176.71 251.9C175.49 251.19 174.83 250.28 174.75 249.36C174.53 248.09 173.58 246.86 171.92 245.9C168.1 243.68 161.91 243.69 158.08 245.9Z" fill="white"/>
<path d="M202.74 105.46C203.45 106.33 203.31 107.6 203.09 108.7C202.63 110.89 201.93 113.04 201.04 115.09C200.4 116.56 199.67 117.97 198.83 119.32C198.26 120.26 197.48 121.26 196.37 121.33C194.88 121.43 193.65 119.74 192.17 120C191.05 120.21 190.44 121.48 190.36 122.61C190.26 123.74 190.5 124.91 190.23 126.02C189.76 128.06 187.77 129.31 185.96 130.36C184.27 131.34 182.57 132.33 180.88 133.31C180.5 133.52 180.08 133.74 179.68 133.74C179.58 133.74 179.48 133.73 179.39 133.7C179.01 133.59 178.73 133.27 178.5 132.95C176.95 130.97 175.75 128.71 174.94 126.32C174.33 124.46 174.19 122.03 175.4 120.71C176.07 120.4 176.77 120.15 177.44 119.91C180.48 118.84 183.54 117.56 185.91 115.39C188.27 113.2 189.85 109.92 189.23 106.75C188.7 104.06 186.75 101.95 184.61 100.13C184.54 100.06 184.48 100 184.41 99.9501C184.4 99.9501 184.38 99.9401 184.37 99.9201L184.31 99.8601L183.51 99.2301C189.74 99.0301 195.67 101.8 201.31 104.49C201.83 104.74 202.37 105.01 202.73 105.45L202.74 105.46Z" fill="#2A2A3F"/>
<path d="M191.51 132.85C191.5 135.56 191.27 138.24 190.8 140.89C189.91 139.87 188.9 138.94 187.83 138.08C185.65 136.36 183.07 135.02 180.31 134.88C180.11 134.87 179.92 134.87 179.72 134.87L179.69 133.74C180.09 133.74 180.51 133.52 180.89 133.31C182.58 132.33 184.28 131.34 185.97 130.36C187.78 129.31 189.77 128.06 190.24 126.02C190.51 124.92 190.27 123.74 190.37 122.61C190.45 121.48 191.07 120.21 192.18 120C193.66 119.73 194.89 121.42 196.38 121.33C197.48 121.26 198.26 120.26 198.84 119.32C199.68 117.97 200.4 116.56 201.05 115.09L201.22 115.16C200.2 119.59 199.18 124.01 198.16 128.42C197.87 129.7 197.53 131.06 196.57 131.95C195.26 133.15 193.32 133.11 191.52 132.84L191.51 132.85Z" fill="#FFD592"/>
<path d="M184.61 100.13C186.75 101.94 188.7 104.05 189.23 106.75C189.84 109.92 188.27 113.2 185.91 115.39C183.54 117.57 180.48 118.84 177.44 119.91C176.77 120.15 176.07 120.4 175.4 120.71C174.16 121.27 173.03 122.01 172.41 123.21C171.92 124.16 171.84 125.28 171.74 126.34C171.34 130.63 170.13 135.15 166.9 137.98C164.47 140.12 161.06 141.02 157.88 140.48C154.7 139.92 151.82 137.94 150.1 135.2C147.34 130.8 148.06 124.34 152.15 121.14C155.86 118.26 161.46 118.28 164.57 114.75C165.91 113.24 166.58 111.26 167.33 109.38C168.8 105.74 170.81 102.09 174.1 99.94C176.81 98.17 180.58 97.75 183.34 99.24C183.69 99.42 184.01 99.63 184.3 99.87L184.36 99.93C184.36 99.93 184.39 99.96 184.4 99.96C184.47 100.02 184.53 100.07 184.6 100.14L184.61 100.13Z" fill="#2A2A3F"/>
<path d="M202.31 263.59C199.78 263.7 197.26 263.59 194.74 263.24C194.34 250.87 194.95 238.46 196.61 226.19C196.85 226.22 197.1 226.23 197.34 226.26C199.34 226.37 201.33 226.26 203.31 225.8C206.79 225 210.01 223.18 212.47 220.62C211.3 235.01 209.04 249.29 205.71 263.34C204.58 263.48 203.45 263.56 202.3 263.59H202.31Z" fill="#1A1A26"/>
<path d="M187.01 338.97C186.98 342.03 186.87 345.08 186.67 348.14C185.76 348.29 184.84 348.35 183.93 348.29C183.79 347.22 183.64 346.14 183.5 345.07C182.91 340.73 182.31 336.39 181.73 332.05C181.55 330.72 181.37 329.34 181.74 328.06C181.98 327.25 182.49 326.48 183.18 326.01C183.5 325.79 183.88 325.63 184.28 325.59C184.36 325.56 184.45 325.55 184.53 325.55L184.87 325.42C186.15 327.79 187.42 330.18 188.86 332.47C189.36 333.27 189.89 334.06 190.44 334.84C192.73 338.09 195.47 341.02 198.54 343.55L198.58 343.51C198.58 343.51 198.65 343.5 198.69 343.5C199.92 343.3 201.2 343.33 202.32 343.88C203.46 344.42 204.36 345.61 204.29 346.88C204.28 347.09 204.25 347.28 204.12 347.45C203.97 347.65 203.72 347.74 203.48 347.81C200.52 348.76 197.45 349.32 194.35 349.46C193.62 349.49 192.84 349.49 192.24 349.1C191.68 348.74 191.37 348.11 191.08 347.51C189.73 344.66 188.36 341.83 187 338.98L187.01 338.97Z" fill="#222230"/>
<path d="M194.75 263.24C197.26 263.59 199.79 263.7 202.32 263.59C198.49 283.06 194.67 302.69 194.64 322.56C194.64 329.75 195.21 337.22 198.7 343.5C198.66 343.5 198.63 343.51 198.59 343.51L198.55 343.55C195.48 341.02 192.74 338.09 190.45 334.84C189.91 334.06 189.38 333.26 188.87 332.47L189.02 332.37C188.7 309.27 194.88 286.4 194.09 263.3L194.12 263.17C194.33 263.2 194.54 263.23 194.75 263.24Z" fill="#FFD592"/>
<path d="M188.32 261.93C186.77 261.51 185.25 260.99 183.77 260.39C182.63 259.93 181.48 259.4 180.42 258.74C179.47 258.15 178.59 257.47 177.88 256.63C178.82 242.95 172.99 229.65 172.04 215.94C174.26 217.87 177.02 219.21 179.7 220.49C185.06 223.06 190.81 225.64 196.61 226.19C194.95 238.46 194.33 250.87 194.74 263.24C194.53 263.23 194.32 263.2 194.11 263.17C192.16 262.89 190.22 262.49 188.32 261.93Z" fill="#1C1C2D"/>
<path d="M194.09 263.3C194.89 286.4 188.7 309.27 189.02 332.37L188.87 332.47C187.43 330.18 186.16 327.79 184.88 325.42L184.54 325.55C184.46 325.55 184.37 325.56 184.29 325.59C184.88 316.95 184.79 308.27 184.02 299.64C183.28 291.4 181.93 283.06 183.36 274.92C184.17 270.33 185.87 265.89 188.32 261.94C190.22 262.5 192.16 262.9 194.11 263.18L194.08 263.31L194.09 263.3Z" fill="#F4C178"/>
<path d="M181.12 322.84L181.02 322.9C180.85 322.87 180.7 322.87 180.55 322.89C179.45 310.55 178.36 298.21 177.26 285.88C176.99 282.84 176.72 279.78 176.79 276.72C176.9 270.58 178.35 264.53 180.43 258.75C181.49 259.41 182.64 259.94 183.78 260.4C185.26 261 186.78 261.52 188.33 261.94C185.89 265.89 184.18 270.33 183.37 274.92C181.93 283.06 183.29 291.41 184.03 299.64C184.8 308.27 184.88 316.95 184.3 325.59C183.9 325.63 183.52 325.79 183.2 326.01L183.13 325.9C182.33 324.98 181.66 323.95 181.13 322.84H181.12Z" fill="#DBA052"/>
<path d="M180.55 322.88C180.7 322.87 180.86 322.87 181.02 322.89L181.12 322.83C181.65 323.93 182.32 324.97 183.12 325.89L183.19 326C182.51 326.47 181.99 327.24 181.75 328.05C181.37 329.33 181.55 330.72 181.74 332.04C182.33 336.38 182.93 340.72 183.51 345.06H183.44C182.48 345.65 181.26 345.76 180.22 345.37H180.21C178.97 340.16 177.74 334.94 177.22 329.62C177.08 328.13 177 326.58 177.57 325.19C178.09 323.96 179.26 322.91 180.56 322.86L180.55 322.88Z" fill="#1C1C2D"/>
<path d="M197.27 194.57C198.78 204.9 198.15 215.43 197.37 225.84L197.34 226.26C197.1 226.23 196.85 226.22 196.61 226.19C190.82 225.65 185.06 223.06 179.7 220.49C177.02 219.21 174.26 217.87 172.04 215.94C171.38 215.37 170.77 214.74 170.23 214.06C169.24 208.43 169.76 202.54 171.67 197.17C172.72 194.24 174.18 191.42 174.69 188.35C175.42 183.88 174.03 179.42 172.54 175.12C172.4 174.66 172.23 174.2 172.08 173.75C168.97 164.79 166.22 155.31 167.67 145.93C168.01 143.78 168.68 141.52 170.04 139.91C170.51 139.34 171.09 138.86 171.76 138.5C172.39 138.15 173.07 137.94 173.77 137.83C175.6 137.52 177.58 137.9 179.42 138.36C183.93 139.52 188.31 141.1 192.53 143.09C194 143.77 195.43 144.51 196.86 145.31C198.24 146.08 199.58 146.89 200.91 147.74C199.4 147.59 198.51 147.98 197.82 148.3C197.08 148.65 196.47 149.18 195.96 149.82C195.92 149.88 195.88 149.92 195.85 149.97C190.94 156.29 191.97 162.6 192.81 170.62C193.63 178.7 196.09 186.53 197.28 194.58L197.27 194.57Z" fill="#2A2A3F"/>
<path d="M211.02 152.69C209.67 151.74 208.47 150.96 207.39 150.32C209.05 151.24 210.42 152.11 211.02 152.69Z" fill="#2A2A3F"/>
<path d="M235.9 181.04C231.34 184.31 226.23 186.81 220.85 188.4C220.28 188.57 219.68 188.74 219.08 188.68C218.07 188.57 217.24 187.84 216.5 187.14C212.59 183.45 208.96 179.43 205.69 175.16C202.4 170.83 199.45 166.23 196.92 161.41C195.76 159.23 194.67 156.93 194.57 154.47C194.51 152.89 194.93 151.23 195.84 149.96C195.87 149.9 195.91 149.86 195.95 149.81C196.45 149.17 197.07 148.64 197.81 148.29C198.49 147.97 199.39 147.58 200.9 147.73C201.92 147.83 203.2 148.19 204.92 148.99C205.37 149.21 205.86 149.45 206.36 149.74C206.46 149.8 206.56 149.85 206.65 149.89C206.89 150.02 207.14 150.16 207.39 150.31C208.46 150.95 209.67 151.73 211.02 152.68C216.7 158.15 221.41 164.63 224.88 171.71C226.69 170.48 228.51 169.24 230.32 168.01C230.5 168.26 230.68 168.51 230.85 168.78C233.08 171.95 234.9 175.41 236.24 179.04C236.3 179.19 236.35 179.33 236.41 179.49C236.51 179.76 236.61 180.05 236.54 180.31C236.46 180.63 236.16 180.85 235.9 181.04Z" fill="#2A2A3F"/>
<path d="M196.85 145.3C198.23 145.72 201.72 147.31 204.92 148.99C203.2 148.19 201.92 147.83 200.9 147.73C199.57 146.88 198.23 146.07 196.85 145.3Z" fill="#2A2A3F"/>
<path d="M195.85 149.97C194.94 151.24 194.52 152.9 194.58 154.48C194.68 156.94 195.77 159.24 196.93 161.42C199.46 166.24 202.4 170.84 205.7 175.17C205.74 180.99 207.6 186.63 209.04 192.29C211.36 201.35 212.71 210.66 213.06 220.01C212.88 220.22 212.7 220.43 212.49 220.62C210.03 223.17 206.81 225 203.33 225.8C201.35 226.26 199.35 226.37 197.36 226.26L197.39 225.84C198.17 215.43 198.8 204.9 197.29 194.57C196.1 186.53 193.65 178.7 192.82 170.61C191.98 162.6 190.95 156.29 195.86 149.96L195.85 149.97Z" fill="#1C1C2D"/>
<path d="M253.46 166.4C253.36 166.58 253.25 166.75 253.12 166.9C252.58 167.51 251.72 167.75 250.94 168C245.06 169.93 240.51 174.52 236.24 179.04C234.9 175.41 233.09 171.95 230.85 168.78L230.99 168.68C234.08 167.21 237.15 165.73 240.22 164.24C243.26 162.77 246.38 161.22 248.64 158.71C249.65 157.59 250.48 156.28 251.75 155.49C252.27 155.17 252.89 154.96 253.51 154.92C254.4 154.82 255.3 155.09 255.83 155.81C256.65 156.91 256.23 158.48 255.79 159.77C255.13 161.67 254.49 163.55 253.84 165.45C253.73 165.76 253.62 166.09 253.46 166.39V166.4Z" fill="#FFD592"/>
<path d="M190.79 140.89C191.42 141.59 191.99 142.31 192.52 143.08C188.3 141.08 183.92 139.51 179.41 138.35C177.57 137.89 175.58 137.51 173.76 137.82C175.06 135.98 177.4 134.94 179.71 134.87C179.91 134.87 180.1 134.87 180.3 134.88C183.06 135.02 185.65 136.36 187.82 138.08C188.89 138.93 189.9 139.87 190.79 140.89Z" fill="white"/>
<path d="M172.07 173.74C172.22 174.19 172.39 174.65 172.53 175.11C168.64 170.46 165.54 165.09 164.43 159.15C163.13 152.28 164.85 144.62 169.94 139.83L170.02 139.9C168.65 141.51 167.98 143.77 167.65 145.92C166.2 155.3 168.95 164.78 172.06 173.74H172.07Z" fill="#1C1C2D"/>
<path d="M310.11 85.95C309.77 86.44 309.15 86.82 308.57 86.63C308.12 86.49 307.83 86.09 307.58 85.68C305.64 82.43 305.26 78.5 304.75 74.75C304.69 74.37 304.6 73.95 304.25 73.81C303.97 73.68 303.65 73.82 303.37 73.96C300.42 75.38 297.19 76.21 293.92 76.39C292.94 76.45 291.92 76.43 290.93 76.29C288.96 76.01 287.1 75.28 285.86 73.79C285.39 73.2 285.01 72.35 285.41 71.71C285.59 71.43 285.87 71.25 286.15 71.08C289.22 69.31 292.8 68.58 295.84 66.78C298.09 65.45 300 63.56 302.42 62.55C304.84 61.54 308.12 61.8 309.44 64.04C309.68 64.44 309.89 64.92 310.33 65.05C310.55 65.12 310.79 65.08 311.01 65.02C312.15 64.73 313.29 64.01 314.43 64.29C315.32 64.51 315.98 65.3 316.36 66.13C316.75 66.97 316.95 67.88 317.31 68.71C318.22 70.8 320.17 72.47 320.42 74.73C320.57 76.25 319.92 77.73 319.26 79.11C318.19 81.4 317.12 83.67 316.05 85.96H315.97L316.01 85.67C316.19 84.32 316.11 82.92 315.77 81.59C315.62 81 315.41 80.42 315 79.97C314.58 79.54 313.93 79.29 313.35 79.5C312.95 79.67 312.65 80.04 312.4 80.42C311.63 81.59 311.06 82.88 310.7 84.23C310.55 84.8 310.43 85.42 310.1 85.92L310.11 85.95Z" fill="#2A2A3F"/>
<path d="M300.09 100.02C299.34 99.81 298.62 99.39 298 98.9C297.25 98.31 296.6 97.62 296.06 96.86C295.88 96.62 295.71 96.37 295.56 96.12C295.5 96.04 295.45 95.94 295.41 95.85C294.08 93.62 293.37 90.96 292.83 88.41C291.99 84.4 291.35 80.37 290.95 76.29C291.94 76.43 292.96 76.44 293.94 76.39C297.21 76.21 300.45 75.38 303.39 73.96C303.67 73.82 303.99 73.68 304.27 73.81C304.62 73.95 304.72 74.37 304.77 74.75C305.29 78.51 305.66 82.43 307.6 85.68C307.85 86.08 308.14 86.49 308.59 86.63C309.16 86.81 309.79 86.43 310.13 85.95C310.47 85.45 310.58 84.83 310.73 84.26C311.09 82.91 311.67 81.62 312.43 80.45C312.68 80.07 312.97 79.7 313.38 79.53C313.95 79.32 314.61 79.57 315.03 80C315.43 80.45 315.64 81.03 315.8 81.62C316.14 82.95 316.22 84.34 316.04 85.7H315.97C315.75 87.35 314.77 88.9 313.36 89.8C313.35 89.76 313.35 89.72 313.35 89.67L313.2 89.54C311.75 91.23 310.28 92.93 308.8 94.62C307.42 96.23 306.01 97.84 304.25 99.02C303.26 99.68 302.11 100.19 300.93 100.14C300.65 100.13 300.39 100.08 300.12 100.01L300.09 100.02Z" fill="#FFD592"/>
<path d="M308.83 272.96C309.99 272.83 311.13 272.6 312.25 272.23C312.25 272.38 312.24 272.55 312.22 272.7H312.68C314.24 273.66 314.2 276.13 313.07 277.57C311.93 279.01 310.1 279.69 308.37 280.29C303.74 281.91 299.1 283.53 294.4 284.97C291.51 285.85 288.56 286.66 285.54 286.8C283.38 286.9 280.68 286.23 280.22 284.12C279.82 282.28 281.41 280.64 282.9 279.49C287.35 275.97 292.2 272.94 297.28 270.43C300.71 272.52 304.86 273.4 308.84 272.96H308.83Z" fill="#313049"/>
<path d="M308.83 272.96C309.92 252.98 310.95 232.84 307.89 213.07C308.18 213.8 308.49 214.52 308.78 215.25C310.47 219.38 312.06 223.58 313.51 227.83C313.78 242.66 313.36 257.47 312.24 272.24C311.12 272.6 309.98 272.84 308.82 272.97L308.83 272.96Z" fill="#222230"/>
<path d="M338.45 285.46C337.43 285.99 336.26 286.24 335.11 286.47C334.48 286.6 333.84 286.71 333.21 286.81L333.18 286.67C334.27 271.36 335.33 255.87 332.69 240.77C332.13 237.55 331.41 234.36 330.26 231.31C329.13 228.34 327.62 225.53 326.35 222.61C322.01 212.67 320.5 201.68 316.4 191.63C317.89 191.23 319.23 190.44 320.49 189.54C321.23 189.01 321.93 188.45 322.63 187.88L323.1 188.09C322.71 188.91 322.3 189.74 321.94 190.56C321.33 191.94 320.81 193.59 321.54 194.92C322.32 196.32 324.12 196.71 325.71 196.83C326.74 196.9 327.82 196.91 328.82 196.68C329.73 198.76 329.95 201.11 330.12 203.38C330.4 207.19 330.59 211.02 330.71 214.84C330.77 216.78 330.82 218.78 331.63 220.54C332.37 222.16 333.67 223.44 334.78 224.84C338.13 229.06 339.68 234.46 340.14 239.83C340.61 245.19 340.07 250.59 339.64 255.95C339.1 262.93 338.73 269.91 338.59 276.9C338.52 279.64 338.51 282.41 339.08 285.08C338.88 285.23 338.66 285.36 338.44 285.47L338.45 285.46Z" fill="#222230"/>
<path d="M338.45 285.46C339.73 286.56 339.83 288.64 339.09 290.19C338.32 291.77 336.9 292.91 335.52 294C333.86 295.3 332.21 296.6 330.56 297.89C329.02 299.09 327.45 300.33 325.58 300.92C323.88 301.45 322.05 301.42 320.26 301.28C318.4 301.13 316.56 300.88 314.73 300.53C313.08 300.21 311.09 299.39 311.04 297.71C311 296.58 311.93 295.69 312.77 294.93C316.26 291.87 319.75 288.82 323.24 285.76C324.83 286.65 326.69 287.06 328.52 287.14C330.08 287.21 331.66 287.04 333.21 286.79C333.84 286.69 334.48 286.58 335.11 286.45C336.25 286.23 337.43 285.98 338.45 285.44V285.46Z" fill="#3A3A56"/>
<path d="M313.52 227.82C312.07 223.58 310.48 219.37 308.79 215.24C308.5 214.51 308.19 213.79 307.9 213.06C304.35 204.5 300.68 195.74 300.84 186.58C302 187.25 303.17 187.91 304.34 188.56C308.05 190.63 312.28 192.68 316.4 191.6H316.41C320.51 201.67 322.02 212.65 326.36 222.59C327.63 225.51 329.14 228.31 330.27 231.29C331.41 234.35 332.14 237.53 332.7 240.75C335.34 255.85 334.28 271.34 333.19 286.65L333.22 286.79C331.67 287.04 330.09 287.21 328.53 287.14C326.7 287.06 324.84 286.65 323.25 285.76C322.91 285.59 322.59 285.38 322.29 285.16L322.14 284.89C323.72 265.56 319.88 246.23 313.53 227.81L313.52 227.82Z" fill="#1A1A26"/>
<path d="M297.27 270.43C297.02 270.28 296.78 270.12 296.54 269.96L296.58 269.89C297.01 238.8 285.48 208.47 285.89 177.38C286.41 177.78 286.96 178.15 287.52 178.5C291.89 181.31 296.31 184 300.82 186.6C300.67 195.76 304.34 204.52 307.88 213.08C310.94 232.85 309.9 252.99 308.82 272.97C304.84 273.42 300.7 272.54 297.26 270.44L297.27 270.43Z" fill="#1A1A26"/>
<path d="M325.34 180.71H325.23C327.59 171.16 327.98 161.15 326.35 151.45C324.98 143.23 322.2 135.31 320.68 127.12C320.67 127.06 320.65 126.99 320.65 126.94C320.18 124.4 319.85 121.77 320.51 119.28C321.04 117.26 322.17 115.44 323.55 113.88C324.67 112.61 325.98 111.46 327.57 110.88C328.76 110.45 330.11 110.38 331.28 110.78C331.81 111.27 332.31 111.79 332.8 112.34C337.2 117.38 338.89 124.16 340.28 130.7C341.45 136.14 342.51 141.64 342.78 147.21C343.35 158.6 340.62 169.88 337.88 180.97C336.81 180.94 335.72 180.91 334.64 180.9C331.54 180.82 328.43 180.76 325.33 180.72L325.34 180.71Z" fill="#2A2A3F"/>
<path d="M328.83 196.66C327.82 196.9 326.75 196.88 325.72 196.81C324.13 196.68 322.33 196.29 321.55 194.9C320.82 193.57 321.34 191.93 321.95 190.54C322.31 189.72 322.72 188.89 323.11 188.07C324.23 185.7 325.3 183.3 325.34 180.7C328.44 180.74 331.55 180.8 334.65 180.88C334.64 183.64 334.4 186.42 333.97 189.14C333.52 191.88 332.63 194.89 330.19 196.18C329.76 196.4 329.31 196.56 328.84 196.65L328.83 196.66Z" fill="#FFD592"/>
<path d="M297.72 139.79C297.83 139.52 297.94 139.23 298.07 138.92L314.6 123.05L310.55 120.03L316.01 118.05L321.72 102.97L322.01 102.93C324.89 105.78 328.38 107.96 331.29 110.76C330.12 110.36 328.76 110.42 327.58 110.86C325.99 111.45 324.68 112.59 323.56 113.86C322.18 115.42 321.05 117.24 320.52 119.26C319.86 121.76 320.18 124.38 320.66 126.92L320.42 126.96C319.15 133.09 317.87 139.23 317.4 145.49C316.59 156.36 318.25 167.25 319.73 178.05C320.25 181.79 320.74 185.56 320.34 189.3L320.49 189.52C319.23 190.43 317.89 191.21 316.4 191.6H316.39C312.27 192.67 308.04 190.62 304.33 188.56C303.16 187.9 301.98 187.25 300.83 186.58C296.32 183.98 291.9 181.29 287.53 178.48C286.97 178.13 286.41 177.77 285.9 177.36C285.29 176.9 284.71 176.4 284.25 175.78L283.47 175.4C285.86 162.46 285.89 149.21 284.87 136.07C284.72 134.12 284.53 132.16 284.34 130.21C283.71 123.82 282.89 117.31 284.14 111.01C285.41 104.71 289.22 98.5201 295.25 96.2801L295.56 96.1001C295.71 96.3501 295.88 96.6001 296.06 96.8401C296.06 96.8401 291.31 100.37 290.92 102.83C290.53 105.27 288.7 118.13 288.7 118.13L292.39 118.63L289.71 122.4L297.7 139.08L297.73 139.76L297.72 139.79Z" fill="#2A2A3F"/>
<path d="M325.23 180.71H325.34C325.3 183.31 324.22 185.71 323.11 188.08L322.64 187.87C321.94 188.44 321.24 189 320.5 189.53L320.35 189.31C320.74 185.57 320.25 181.8 319.74 178.06C318.26 167.27 316.6 156.38 317.41 145.5C317.87 139.25 319.16 133.1 320.43 126.97L320.67 126.93C320.67 126.99 320.68 127.06 320.7 127.11C322.22 135.3 325 143.22 326.37 151.44C328 161.14 327.61 171.15 325.25 180.7L325.23 180.71Z" fill="#1C1C2D"/>
<path d="M305.35 121.88C307.12 117.96 308.9 114.2 310.42 111.38C313.06 106.45 313.91 102.5 314.09 99.7501C314.27 96.8901 313.74 95.3201 313.74 95.3201C321.04 98.0101 321.71 102.97 321.71 102.97L316 118.05L310.54 120.03L314.59 123.05L298.06 138.92C299.78 134.75 302.56 128.09 305.35 121.87V121.88Z" fill="#1A1A26"/>
<path d="M306.13 105.67C305.78 104.15 305.39 102.63 304.94 101.13L313.73 95.3201C313.73 95.3201 314.26 96.8801 314.08 99.7501H314.02C312.15 103.34 309.76 106.69 306.97 109.63L306.91 109.59C306.69 108.26 306.42 106.97 306.11 105.67H306.13Z" fill="#E2E2E2"/>
<path d="M306.98 109.64C309.77 106.69 312.16 103.34 314.03 99.76H314.09C313.91 102.51 313.06 106.46 310.42 111.39C308.9 114.21 307.13 117.97 305.35 121.89C304.78 118.2 304.43 114.46 304.28 110.74V110.53H304.14C304.98 109.02 305.58 107.36 305.9 105.66C305.98 105.67 306.05 105.67 306.14 105.69C306.45 106.99 306.71 108.29 306.94 109.61L307 109.65L306.98 109.64Z" fill="white"/>
<path d="M304.95 101.13L304.64 101.34L302.16 105.35L301.55 105.45L300.24 105.35C300.37 103.58 300.31 101.79 300.1 100.02C300.37 100.09 300.63 100.13 300.91 100.15C302.1 100.21 303.24 99.69 304.23 99.03C305.99 97.86 307.4 96.2401 308.78 94.6301C310.26 92.9401 311.73 91.24 313.18 89.55L313.33 89.68C313.33 89.68 313.33 89.76 313.34 89.81C313.47 91.65 313.61 93.5 313.74 95.34L304.95 101.15V101.13Z" fill="#F4C178"/>
<path d="M305.9 105.64C304.45 105.5 303 105.44 301.54 105.44L302.15 105.34L304.63 101.33L304.94 101.12C305.39 102.61 305.78 104.14 306.13 105.66C306.05 105.65 305.98 105.65 305.89 105.63L305.9 105.64Z" fill="white"/>
<path d="M304.14 110.52H304.27V110.73C304.44 114.46 304.79 118.2 305.36 121.88C302.57 128.09 299.79 134.75 298.07 138.93L297.75 139.24L297.69 139.11L296.81 116.48H297.03C297.71 114.33 298.59 112.25 299.64 110.25C299.7 110.26 299.75 110.28 299.81 110.28C301.23 110.56 302.7 110.64 304.14 110.52Z" fill="#21DBF9"/>
<path d="M299.82 109.9C299.85 108.38 299.89 106.87 299.92 105.35H300.23L301.54 105.45C302.99 105.45 304.44 105.51 305.9 105.65C305.58 107.35 304.98 109.01 304.14 110.52C302.7 110.65 301.07 110.53 299.64 110.25C299.65 110.12 299.82 110.03 299.82 109.9Z" fill="#21DBF9"/>
<path d="M299.81 104.86C299.53 106.02 299.27 107.19 298.99 108.35C297.96 107.11 297.08 105.75 296.35 104.33L296.06 96.8601C296.6 97.6101 297.25 98.3101 298 98.9001C298.63 99.3901 299.34 99.8101 300.09 100.02C300.3 101.79 300.36 103.58 300.23 105.35H299.92C299.93 105.2 299.93 105.04 299.93 104.89L299.8 104.86H299.81Z" fill="#E2E2E2"/>
<path d="M299.64 110.25C298.59 112.25 297.71 114.33 297.03 116.46H296.81L296.35 104.33C297.08 105.75 297.96 107.11 298.99 108.35C299.27 107.19 299.53 106.02 299.81 104.86L299.94 104.89C299.94 105.04 299.94 105.2 299.93 105.35C299.9 106.87 299.86 108.38 299.83 109.9C299.77 110.01 299.7 110.12 299.65 110.25H299.64Z" fill="white"/>
<path d="M296.35 104.33L296.81 116.48L297.69 139.11L289.7 122.43L292.38 118.66L288.69 118.16C288.69 118.16 290.52 105.3 290.91 102.86C291.3 100.4 296.05 96.87 296.05 96.87L296.34 104.34L296.35 104.33Z" fill="#1A1A26"/>
<path d="M264.91 160.58C263.22 156.95 260.95 153.59 258.22 150.65C258.12 150.55 258.04 150.45 257.94 150.36C257.69 150.12 257.41 149.89 257.09 149.76L256.94 149.62C261.57 144.43 265.09 138.35 268.6 132.32C272.75 125.13 276.92 117.94 280.55 110.49C282.14 107.25 283.65 103.91 285.95 101.14C288.27 98.36 291.53 96.16 295.14 96.02L295.41 95.87C295.45 95.95 295.51 96.05 295.56 96.14L295.25 96.32C289.22 98.55 285.41 104.75 284.14 111.05C282.88 117.35 283.71 123.85 284.34 130.25C284.54 132.2 284.72 134.16 284.87 136.11L284.47 136.14C279.39 143.8 273.92 151.19 268.05 158.28C267.18 159.34 266.29 160.4 265.22 161.23L264.93 160.6L264.91 160.58Z" fill="#2A2A3F"/>
<path d="M264.91 160.58C263.75 161.49 262.56 162.37 261.36 163.22C261.26 162.73 261.15 162.26 261.02 161.77C260.25 158.87 259.04 156.09 257.43 153.55C257.12 153.08 256.79 152.59 256.3 152.35L256.27 152.32C256.79 151.76 257.28 151.18 257.74 150.56L257.94 150.36C258.04 150.46 258.12 150.56 258.22 150.65C260.94 153.58 263.22 156.95 264.91 160.58Z" fill="white"/>
<path d="M257.44 153.54C259.05 156.08 260.26 158.86 261.03 161.76C258.98 163.94 256.34 165.54 253.46 166.39C253.61 166.1 253.73 165.76 253.84 165.45C254.5 163.55 255.14 161.67 255.79 159.77C256.24 158.47 256.66 156.91 255.83 155.81C255.3 155.08 254.41 154.82 253.51 154.92V154.86C254.5 154.09 255.42 153.24 256.27 152.31L256.3 152.34C256.79 152.58 257.12 153.07 257.43 153.54H257.44Z" fill="#DBA052"/>
<path d="M305.59 103.46L306.71 108.35L304.14 110.52L303.52 105.45L305.59 103.46Z" fill="#21DBF9"/>
<path d="M299.92 105.35L299.83 109.35L299.12 107.79L299.81 104.86L299.92 105.35Z" fill="#21DBF9"/>
</g>
<path fill-rule="evenodd" clip-rule="evenodd" d="M152.849 93.8011C155.472 89.8461 157 85.1015 157 80C157 66.1929 145.807 55 132 55C118.193 55 107 66.1929 107 80C107 93.8071 118.193 105 132 105C137.122 105 141.884 103.46 145.848 100.818L158 104.5L152.849 93.8011Z" fill="white"/>
<path d="M152.849 93.8011L152.432 93.5247L152.275 93.7617L152.398 94.018L152.849 93.8011ZM145.848 100.818L145.993 100.339L145.767 100.271L145.571 100.401L145.848 100.818ZM158 104.5L157.855 104.979L158.944 105.309L158.451 104.283L158 104.5ZM156.5 80C156.5 85.0002 155.003 89.6491 152.432 93.5247L153.265 94.0774C155.941 90.043 157.5 85.2028 157.5 80H156.5ZM132 55.5C145.531 55.5 156.5 66.469 156.5 80H157.5C157.5 65.9167 146.083 54.5 132 54.5V55.5ZM107.5 80C107.5 66.469 118.469 55.5 132 55.5V54.5C117.917 54.5 106.5 65.9167 106.5 80H107.5ZM132 104.5C118.469 104.5 107.5 93.531 107.5 80H106.5C106.5 94.0833 117.917 105.5 132 105.5V104.5ZM145.571 100.401C141.686 102.991 137.02 104.5 132 104.5V105.5C137.223 105.5 142.081 103.929 146.125 101.234L145.571 100.401ZM145.703 101.296L157.855 104.979L158.145 104.021L145.993 100.339L145.703 101.296ZM158.451 104.283L153.299 93.5842L152.398 94.018L157.549 104.717L158.451 104.283Z" fill="#999999" fill-opacity="0.2"/>
<path fill-rule="evenodd" clip-rule="evenodd" d="M348.151 77.8011C345.528 73.8461 344 69.1015 344 64C344 50.1929 355.193 39 369 39C382.807 39 394 50.1929 394 64C394 77.8071 382.807 89 369 89C363.878 89 359.116 87.4599 355.152 84.8175L343 88.5L348.151 77.8011Z" fill="white"/>
<path d="M348.151 77.8011L348.568 77.5247L348.725 77.7617L348.602 78.018L348.151 77.8011ZM355.152 84.8175L355.007 84.339L355.233 84.2706L355.429 84.4015L355.152 84.8175ZM343 88.5L343.145 88.9785L342.056 89.3086L342.549 88.2831L343 88.5ZM344.5 64C344.5 69.0002 345.997 73.6491 348.568 77.5247L347.735 78.0774C345.059 74.043 343.5 69.2028 343.5 64H344.5ZM369 39.5C355.469 39.5 344.5 50.469 344.5 64H343.5C343.5 49.9167 354.917 38.5 369 38.5V39.5ZM393.5 64C393.5 50.469 382.531 39.5 369 39.5V38.5C383.083 38.5 394.5 49.9167 394.5 64H393.5ZM369 88.5C382.531 88.5 393.5 77.531 393.5 64H394.5C394.5 78.0833 383.083 89.5 369 89.5V88.5ZM355.429 84.4015C359.314 86.9908 363.98 88.5 369 88.5V89.5C363.777 89.5 358.919 87.929 354.875 85.2336L355.429 84.4015ZM355.297 85.2961L343.145 88.9785L342.855 88.0215L355.007 84.339L355.297 85.2961ZM342.549 88.2831L347.701 77.5842L348.602 78.018L343.451 88.7169L342.549 88.2831Z" fill="#999999" fill-opacity="0.2"/>
<path d="M365.416 51.677C366.706 50.9323 368.295 50.9323 369.584 51.677L376.697 55.7835C377.987 56.5281 378.781 57.9042 378.781 59.3934V67.6065C378.781 69.0957 377.987 70.4718 376.697 71.2164L369.584 75.3229C368.295 76.0676 366.706 76.0676 365.416 75.3229L358.303 71.2164C357.013 70.4718 356.219 69.0957 356.219 67.6065V59.3934C356.219 57.9042 357.013 56.5281 358.303 55.7835L365.416 51.677Z" fill="#02AC5B"/>
<path d="M372.71 59.1578L365.546 66.9736L362.289 63.421" stroke="#FFFBF6" stroke-width="2.60526" stroke-linecap="round" stroke-linejoin="round"/>
<path d="M129.416 66.677C130.705 65.9323 132.294 65.9323 133.584 66.677L140.697 70.7835C141.987 71.5281 142.781 72.9042 142.781 74.3934V82.6065C142.781 84.0957 141.987 85.4718 140.697 86.2164L133.584 90.3229C132.294 91.0676 130.705 91.0676 129.416 90.3229L122.303 86.2164C121.013 85.4718 120.219 84.0957 120.219 82.6065V74.3934C120.219 72.9042 121.013 71.5281 122.303 70.7835L129.416 66.677Z" fill="#02AC5B"/>
<path d="M136.71 74.1578L129.546 81.9736L126.289 78.421" stroke="#FFFBF6" stroke-width="2.60526" stroke-linecap="round" stroke-linejoin="round"/>
</g>
<defs>
<clipPath id="clip0_1_1255">
<rect width="573" height="400" fill="white"/>
</clipPath>
<clipPath id="clip1_1_1255">
<rect width="510.5" height="453.673" fill="white" transform="translate(11 22.7885)"/>
</clipPath>
<clipPath id="clip2_1_1255">
<rect width="218.11" height="318.32" fill="white" transform="translate(141 62)"/>
</clipPath>
</defs>
</svg>
