<svg width="12" height="12" viewBox="0 0 12 12" fill="none" xmlns="http://www.w3.org/2000/svg">
<path d="M1.33333 12C0.966667 12 0.652778 11.8694 0.391667 11.6083C0.130556 11.3472 0 11.0333 0 10.6667V4C0 3.63333 0.130556 3.31944 0.391667 3.05833C0.652778 2.79722 0.966667 2.66667 1.33333 2.66667H2.66667V1.33333C2.66667 0.966667 2.79722 0.652778 3.05833 0.391667C3.31944 0.130556 3.63333 0 4 0H8C8.36667 0 8.68056 0.130556 8.94167 0.391667C9.20278 0.652778 9.33333 0.966667 9.33333 1.33333V5.33333H10.6667C11.0333 5.33333 11.3472 5.46389 11.6083 5.725C11.8694 5.98611 12 6.3 12 6.66667V10.6667C12 11.0333 11.8694 11.3472 11.6083 11.6083C11.3472 11.8694 11.0333 12 10.6667 12H6.66667V9.33333H5.33333V12H1.33333ZM1.33333 10.6667H2.66667V9.33333H1.33333V10.6667ZM1.33333 8H2.66667V6.66667H1.33333V8ZM1.33333 5.33333H2.66667V4H1.33333V5.33333ZM4 8H5.33333V6.66667H4V8ZM4 5.33333H5.33333V4H4V5.33333ZM4 2.66667H5.33333V1.33333H4V2.66667ZM6.66667 8H8V6.66667H6.66667V8ZM6.66667 5.33333H8V4H6.66667V5.33333ZM6.66667 2.66667H8V1.33333H6.66667V2.66667ZM9.33333 10.6667H10.6667V9.33333H9.33333V10.6667ZM9.33333 8H10.6667V6.66667H9.33333V8Z" fill="#98908A"/>
</svg>
