<svg width="22" height="24" viewBox="0 0 22 24" fill="none" xmlns="http://www.w3.org/2000/svg">
<g clip-path="url(#clip0_1_3846)">
<path d="M21.6381 11.0601C21.6378 8.99259 21.045 6.96847 19.9301 5.22736C18.8151 3.48625 17.2247 2.10107 15.3469 1.2358C13.4692 0.37053 11.3829 0.0614055 9.3349 0.345024C7.28694 0.628642 5.36313 1.49313 3.79122 2.83613C2.21931 4.17914 1.06513 5.94443 0.465313 7.92301C-0.134504 9.90159 -0.154835 12.0106 0.406726 14.0004C0.968287 15.9902 2.08822 17.7774 3.63395 19.1504C5.17968 20.5235 7.08646 21.4249 9.12857 21.748V14.1881H6.38189V11.0601H9.12857V8.67719C9.12857 5.96567 10.7433 4.46723 13.2155 4.46723C14.3988 4.46723 15.6362 4.6782 15.6362 4.6782V7.34239H14.273C12.9288 7.34239 12.5095 8.17546 12.5095 9.03287V11.0614H15.5105L15.0304 14.1881H12.5095V21.748C15.0543 21.3448 17.3718 20.047 19.0452 18.0878C20.7185 16.1286 21.638 13.6366 21.6381 11.0601Z" fill="#FF6435"/>
</g>
<defs>
<clipPath id="clip0_1_3846">
<rect width="21.6381" height="22.9905" fill="white" transform="translate(0 0.0218506)"/>
</clipPath>
</defs>
</svg>
