<svg width="22" height="24" viewBox="0 0 22 24" fill="none" xmlns="http://www.w3.org/2000/svg">
<g clip-path="url(#clip0_1_3856)">
<path d="M20.398 0.241089H1.95695C1.0752 0.241089 0.361145 0.938918 0.361145 1.80038V20.3145C0.365784 20.7337 0.53658 21.1339 0.836032 21.4272C1.13548 21.7206 1.53912 21.8832 1.95831 21.8792H20.398C21.2811 21.8792 21.9992 21.1773 21.9992 20.3199V1.80038C21.9992 0.938918 21.2811 0.241089 20.398 0.241089ZM6.77954 18.6808H3.57034V8.35132H6.78225V18.6808H6.77954ZM5.17562 6.94214C4.92713 6.94919 4.67975 6.90638 4.44808 6.81624C4.2164 6.72611 4.00514 6.59046 3.82676 6.41732C3.64838 6.24419 3.5065 6.03706 3.40949 5.80818C3.31248 5.5793 3.26232 5.3333 3.26195 5.08472C3.26159 4.83613 3.31104 4.58998 3.40738 4.36082C3.50373 4.13166 3.64501 3.92413 3.82288 3.75047C4.00076 3.57681 4.21163 3.44056 4.44304 3.34974C4.67444 3.25893 4.9217 3.21541 5.17021 3.22174C5.65492 3.23408 6.11566 3.43512 6.45437 3.78206C6.79308 4.129 6.983 4.59444 6.9837 5.0793C6.98441 5.56416 6.79584 6.03015 6.45814 6.37808C6.12045 6.726 5.66029 6.92838 5.17562 6.94214ZM18.8009 18.6781H15.593V13.6581C15.593 12.4626 15.5727 10.9195 13.9242 10.9195C12.2553 10.9195 12.0011 12.2259 12.0011 13.5742V18.6781H8.79595V8.35267H11.8726V9.76456H11.9159C12.3419 8.95313 13.39 8.09436 14.9493 8.09436C18.2004 8.09436 18.7995 10.2338 18.7995 13.0143V18.6808L18.8009 18.6781Z" fill="#FF6435"/>
</g>
<defs>
<clipPath id="clip0_1_3856">
<rect width="21.6381" height="22.9905" fill="white" transform="translate(0.361908 0.0218506)"/>
</clipPath>
</defs>
</svg>
