<svg width="23" height="24" viewBox="0 0 23 24" fill="none" xmlns="http://www.w3.org/2000/svg">
<g clip-path="url(#clip0_1_3853)">
<path d="M7.59776 19.8516C15.7621 19.8516 20.229 13.0857 20.229 7.2204C20.229 7.03107 20.2236 6.83632 20.2155 6.64699C21.0843 6.01839 21.834 5.23985 22.4293 4.34794C21.6202 4.70812 20.7611 4.94341 19.8814 5.04577C20.8074 4.49057 21.5008 3.61851 21.8329 2.5912C20.9618 3.10723 20.0092 3.47126 19.0159 3.66769C18.3463 2.95619 17.461 2.4851 16.4967 2.32729C15.5325 2.16948 14.5432 2.33374 13.6817 2.79466C12.8202 3.25558 12.1346 3.98748 11.7308 4.87719C11.327 5.7669 11.2276 6.76485 11.448 7.71672C9.68342 7.62834 7.95713 7.17008 6.38104 6.37167C4.80495 5.57326 3.41426 4.45252 2.29913 3.08211C1.73252 4.05919 1.55921 5.21535 1.81443 6.31562C2.06965 7.41589 2.73425 8.37769 3.67315 9.00554C2.96844 8.98326 2.27914 8.79367 1.66216 8.45242V8.50651C1.66109 9.53223 2.01542 10.5266 2.66486 11.3206C3.31431 12.1145 4.21875 12.6589 5.22433 12.8612C4.57123 13.0389 3.88612 13.0648 3.22146 12.9369C3.50533 13.8186 4.05728 14.5897 4.80032 15.1426C5.54337 15.6956 6.44046 16.0029 7.36651 16.0217C6.44515 16.7451 5.39007 17.2796 4.26176 17.5946C3.13344 17.9095 1.95406 17.9986 0.791229 17.8569C2.8221 19.1602 5.18466 19.8526 7.59776 19.8516Z" fill="#FF6435"/>
</g>
<defs>
<clipPath id="clip0_1_3853">
<rect width="21.6381" height="22.9905" fill="white" transform="translate(0.790436 0.0218506)"/>
</clipPath>
</defs>
</svg>
