<svg width="13" height="12" viewBox="0 0 13 12" fill="none" xmlns="http://www.w3.org/2000/svg">
<path d="M12.6933 0.6C12.6933 0.5 12.5867 0.4 12.48 0.3C12.3733 0.2 12.2667 0.0999999 12.16 0.0999999C12.0533 -9.68575e-08 11.84 0 11.7333 0H2.13333C1.49333 0 1.06667 0.4 1.06667 1C1.06667 1.6 1.49333 2 2.13333 2H9.17333L0.32 10.3C-0.106667 10.7 -0.106667 11.3 0.32 11.7C0.533333 11.9 0.746666 12 1.06667 12C1.38667 12 1.6 11.9 1.81333 11.7L10.6667 3.4V10C10.6667 10.6 11.0933 11 11.7333 11C12.3733 11 12.8 10.6 12.8 10V1C12.8 0.9 12.8 0.7 12.6933 0.6Z" fill="#200D00"/>
</svg>
