<svg width="14" height="14" viewBox="0 0 14 14" fill="none" xmlns="http://www.w3.org/2000/svg">
<path d="M0.33342 13.3333V3.49992C0.33342 3.38881 0.355642 3.28881 0.400086 3.19992C0.444531 3.11103 0.511198 3.03325 0.600086 2.96659L3.26675 0.966585C3.38898 0.877696 3.52231 0.833252 3.66675 0.833252C3.8112 0.833252 3.94453 0.877696 4.06675 0.966585L6.73342 2.96659C6.82231 3.03325 6.88898 3.11103 6.93342 3.19992C6.97786 3.28881 7.00009 3.38881 7.00009 3.49992V4.66659H13.0001C13.189 4.66659 13.3473 4.73047 13.4751 4.85825C13.6029 4.98603 13.6668 5.14436 13.6668 5.33325V13.3333C13.6668 13.5221 13.6029 13.6805 13.4751 13.8083C13.3473 13.936 13.189 13.9999 13.0001 13.9999H1.00009C0.811198 13.9999 0.652864 13.936 0.525086 13.8083C0.397309 13.6805 0.33342 13.5221 0.33342 13.3333ZM1.66675 12.6666H3.00009V11.3333H1.66675V12.6666ZM1.66675 9.99992H3.00009V8.66659H1.66675V9.99992ZM1.66675 7.33325H3.00009V5.99992H1.66675V7.33325ZM1.66675 4.66659H3.00009V3.33325H1.66675V4.66659ZM4.33342 4.66659H5.66675V3.33325H4.33342V4.66659ZM4.33342 12.6666H12.3334V5.99992H4.33342V12.6666ZM9.00009 7.33325H10.3334C10.5223 7.33325 10.6806 7.39714 10.8084 7.52492C10.9362 7.6527 11.0001 7.81103 11.0001 7.99992C11.0001 8.18881 10.9362 8.34714 10.8084 8.47492C10.6806 8.6027 10.5223 8.66659 10.3334 8.66659H9.00009C8.8112 8.66659 8.65286 8.6027 8.52509 8.47492C8.39731 8.34714 8.33342 8.18881 8.33342 7.99992C8.33342 7.81103 8.39731 7.6527 8.52509 7.52492C8.65286 7.39714 8.8112 7.33325 9.00009 7.33325ZM9.00009 9.99992H10.3334C10.5223 9.99992 10.6806 10.0638 10.8084 10.1916C10.9362 10.3194 11.0001 10.4777 11.0001 10.6666C11.0001 10.8555 10.9362 11.0138 10.8084 11.1416C10.6806 11.2694 10.5223 11.3333 10.3334 11.3333H9.00009C8.8112 11.3333 8.65286 11.2694 8.52509 11.1416C8.39731 11.0138 8.33342 10.8555 8.33342 10.6666C8.33342 10.4777 8.39731 10.3194 8.52509 10.1916C8.65286 10.0638 8.8112 9.99992 9.00009 9.99992ZM7.00009 7.99992C7.00009 8.18881 6.9362 8.34714 6.80842 8.47492C6.68064 8.6027 6.52231 8.66659 6.33342 8.66659C6.14453 8.66659 5.9862 8.6027 5.85842 8.47492C5.73064 8.34714 5.66675 8.18881 5.66675 7.99992C5.66675 7.81103 5.73064 7.6527 5.85842 7.52492C5.9862 7.39714 6.14453 7.33325 6.33342 7.33325C6.52231 7.33325 6.68064 7.39714 6.80842 7.52492C6.9362 7.6527 7.00009 7.81103 7.00009 7.99992ZM6.33342 11.3333C6.14453 11.3333 5.9862 11.2694 5.85842 11.1416C5.73064 11.0138 5.66675 10.8555 5.66675 10.6666C5.66675 10.4777 5.73064 10.3194 5.85842 10.1916C5.9862 10.0638 6.14453 9.99992 6.33342 9.99992C6.52231 9.99992 6.68064 10.0638 6.80842 10.1916C6.9362 10.3194 7.00009 10.4777 7.00009 10.6666C7.00009 10.8555 6.9362 11.0138 6.80842 11.1416C6.68064 11.2694 6.52231 11.3333 6.33342 11.3333Z" fill="#98908A"/>
</svg>
